<?xml version="1.0" encoding="UTF-8" standalone="no"?>
<!-- Created with Inkscape (http://www.inkscape.org/) -->

<svg
   width="4320"
   height="1440"
   viewBox="0 0 1143 381"
   version="1.1"
   id="svg382"
   inkscape:version="1.2.1 (9c6d41e410, 2022-07-14)"
   sodipodi:docname="Background.svg"
   xmlns:inkscape="http://www.inkscape.org/namespaces/inkscape"
   xmlns:sodipodi="http://sodipodi.sourceforge.net/DTD/sodipodi-0.dtd"
   xmlns:xlink="http://www.w3.org/1999/xlink"
   xmlns="http://www.w3.org/2000/svg"
   xmlns:svg="http://www.w3.org/2000/svg">
  <sodipodi:namedview
     id="namedview384"
     pagecolor="#ffffff"
     bordercolor="#000000"
     borderopacity="0.25"
     inkscape:showpageshadow="2"
     inkscape:pageopacity="0.0"
     inkscape:pagecheckerboard="0"
     inkscape:deskcolor="#d1d1d1"
     inkscape:document-units="mm"
     showgrid="false"
     showguides="true"
     inkscape:zoom="0.26362494"
     inkscape:cx="2131.8165"
     inkscape:cy="697.96127"
     inkscape:window-width="1920"
     inkscape:window-height="1017"
     inkscape:window-x="-8"
     inkscape:window-y="-8"
     inkscape:window-maximized="1"
     inkscape:current-layer="layer2" />
  <defs
     id="defs379">
    <linearGradient
       inkscape:collect="always"
       id="linearGradient19608">
      <stop
         style="stop-color:#213321;stop-opacity:1;"
         offset="0"
         id="stop19604" />
      <stop
         style="stop-color:#212121;stop-opacity:1;"
         offset="0.63520408"
         id="stop19606" />
    </linearGradient>
    <linearGradient
       inkscape:collect="always"
       id="linearGradient18146">
      <stop
         style="stop-color:#ffffff;stop-opacity:1;"
         offset="0"
         id="stop18142" />
      <stop
         style="stop-color:#ffffff;stop-opacity:0;"
         offset="1"
         id="stop18144" />
    </linearGradient>
    <inkscape:path-effect
       effect="envelope"
       id="path-effect18109"
       is_visible="true"
       lpeversion="1"
       yy="true"
       xx="true"
       bendpath1="M -0.70968874,0.29395798 C 382.0569,393.84652 772.69903,463.18041 1160.4965,57.436553"
       bendpath2="m 1213.6892,240.9522 -70.2545,175.87135"
       bendpath3="M -31.822387,570.669 1168.5256,493.74628"
       bendpath4="M -52.898731,192.60077 -0.70968874,416.82355"
       bendpath1-nodetypes="cc"
       bendpath2-nodetypes="cc"
       bendpath3-nodetypes="cc"
       bendpath4-nodetypes="cc" />
    <inkscape:path-effect
       effect="perspective-envelope"
       up_left_point="-0.70968874,0.29395798"
       up_right_point="1143.4347,0.29395798"
       down_left_point="-0.70968874,416.82355"
       down_right_point="1143.4347,416.82355"
       id="path-effect18011"
       is_visible="true"
       lpeversion="1"
       deform_type="envelope_deformation"
       horizontal_mirror="false"
       vertical_mirror="false"
       overflow_perspective="false" />
    <radialGradient
       inkscape:collect="always"
       xlink:href="#linearGradient18146"
       id="radialGradient18148"
       cx="571.5"
       cy="190.5"
       fx="571.5"
       fy="190.5"
       r="571.63246"
       gradientTransform="matrix(1,0,0,0.33348782,0,126.97057)"
       gradientUnits="userSpaceOnUse" />
    <radialGradient
       inkscape:collect="always"
       xlink:href="#linearGradient19608"
       id="radialGradient19610"
       cx="571.5"
       cy="190.5"
       fx="571.5"
       fy="190.5"
       r="571.63246"
       gradientTransform="matrix(1,0,0,0.33348782,0,126.97057)"
       gradientUnits="userSpaceOnUse" />
  </defs>
  <g
     inkscape:groupmode="layer"
     id="layer2"
     inkscape:label="Background"
     style="display:inline;stroke:url(#radialGradient18148);fill:url(#radialGradient19610);fill-opacity:1">
    <rect
       style="display:none;fill:url(#radialGradient19610);fill-opacity:1;stroke:url(#radialGradient18148);stroke-width:0.264927"
       id="rect599"
       width="1143"
       height="381"
       x="0"
       y="0" />
    <rect
       style="display:inline;fill:url(#radialGradient19610);fill-opacity:1;stroke:url(#radialGradient18148);stroke-width:0.264927"
       id="rect18150"
       width="1143"
       height="381"
       x="0"
       y="0" />
  </g>
  <g
     inkscape:label="Design"
     inkscape:groupmode="layer"
     id="g17808"
     transform="matrix(1,0,0,0.91331243,0.13749437,0.18904898)"
     style="display:none">
    <path
       style="fill:none;fill-opacity:1;stroke:#ffffff;stroke-width:0.264583"
       d="M -0.70964517,7.8672233 H 1143.4347 Z"
       id="path17752" />
    <path
       style="fill:none;fill-opacity:1;stroke:#ffffff;stroke-width:0.264583"
       d="M -0.70965647,23.013754 H 1143.4347 Z"
       id="path17754" />
    <path
       style="fill:none;fill-opacity:1;stroke:#ffffff;stroke-width:0.264583"
       d="M -0.70963875,38.160285 H 1143.4347 Z"
       id="path17756" />
    <path
       style="fill:none;fill-opacity:1;stroke:#ffffff;stroke-width:0.264583"
       d="M -0.70963874,53.306815 H 1143.4347 Z"
       id="path17758" />
    <path
       style="fill:none;fill-opacity:1;stroke:#ffffff;stroke-width:0.264583"
       d="M -0.70962745,68.453346 H 1143.4347 Z"
       id="path17760" />
    <path
       style="fill:none;fill-opacity:1;stroke:#ffffff;stroke-width:0.264583"
       d="M -0.70963875,83.599876 H 1143.4347 Z"
       id="path17762" />
    <path
       style="fill:none;fill-opacity:1;stroke:#ffffff;stroke-width:0.264583"
       d="M -0.70962102,98.746407 H 1143.4346 Z"
       id="path17764" />
    <path
       style="fill:none;fill-opacity:1;stroke:#ffffff;stroke-width:0.264583"
       d="M -0.70962102,113.89294 H 1143.4346 Z"
       id="path17766" />
    <path
       style="fill:none;fill-opacity:1;stroke:#ffffff;stroke-width:0.264583"
       d="M -0.70964517,129.03947 H 1143.4347 Z"
       id="path17768" />
    <path
       style="fill:none;fill-opacity:1;stroke:#ffffff;stroke-width:0.264583"
       d="M -0.70965647,144.186 H 1143.4347 Z"
       id="path17770" />
    <path
       style="fill:none;fill-opacity:1;stroke:#ffffff;stroke-width:0.264583"
       d="M -0.70963874,159.33253 H 1143.4347 Z"
       id="path17772" />
    <path
       style="fill:none;fill-opacity:1;stroke:#ffffff;stroke-width:0.264583"
       d="M -0.70963874,174.47906 H 1143.4347 Z"
       id="path17774" />
    <path
       style="fill:none;fill-opacity:1;stroke:#ffffff;stroke-width:0.264583"
       d="M -0.70964517,189.62559 H 1143.4347 Z"
       id="path17776" />
    <path
       style="fill:none;fill-opacity:1;stroke:#ffffff;stroke-width:0.264583"
       d="M -0.70965647,204.77212 H 1143.4347 Z"
       id="path17778" />
    <path
       style="fill:none;fill-opacity:1;stroke:#ffffff;stroke-width:0.264583"
       d="M -0.70963874,219.91865 H 1143.4347 Z"
       id="path17780" />
    <path
       style="fill:none;fill-opacity:1;stroke:#ffffff;stroke-width:0.264583"
       d="M -0.70963874,235.06518 H 1143.4347 Z"
       id="path17782" />
    <path
       style="fill:none;fill-opacity:1;stroke:#ffffff;stroke-width:0.264583"
       d="M -0.70966287,250.21171 H 1143.4347 Z"
       id="path17784" />
    <path
       style="fill:none;fill-opacity:1;stroke:#ffffff;stroke-width:0.264583"
       d="M -0.70967417,265.35824 H 1143.4347 Z"
       id="path17786" />
    <path
       style="fill:none;fill-opacity:1;stroke:#ffffff;stroke-width:0.264583"
       d="M -0.70965647,280.50477 H 1143.4347 Z"
       id="path17788" />
    <path
       style="fill:none;fill-opacity:1;stroke:#ffffff;stroke-width:0.264583"
       d="M -0.70965647,295.65131 H 1143.4347 Z"
       id="path17790" />
    <path
       style="fill:none;fill-opacity:1;stroke:#ffffff;stroke-width:0.264583"
       d="M -0.70967744,310.79784 H 1143.4347 Z"
       id="path17792" />
    <path
       style="fill:none;fill-opacity:1;stroke:#ffffff;stroke-width:0.264583"
       d="M -0.70968874,325.94437 H 1143.4347 Z"
       id="path17794" />
    <path
       style="fill:none;fill-opacity:1;stroke:#ffffff;stroke-width:0.264583"
       d="M -0.70967102,341.0909 H 1143.4347 Z"
       id="path17796" />
    <path
       style="fill:none;fill-opacity:1;stroke:#ffffff;stroke-width:0.264583"
       d="M -0.70967102,356.23743 H 1143.4347 Z"
       id="path17798" />
    <path
       style="fill:none;fill-opacity:1;stroke:#ffffff;stroke-width:0.264583"
       d="M -0.70966287,371.38396 H 1143.4347 Z"
       id="path17800" />
    <path
       style="fill:none;fill-opacity:1;stroke:#ffffff;stroke-width:0.264583"
       d="M -0.70967417,386.53049 H 1143.4347 Z"
       id="path17802" />
    <path
       style="fill:none;fill-opacity:1;stroke:#ffffff;stroke-width:0.264583"
       d="M -0.70965647,401.67702 H 1143.4347 Z"
       id="path17804" />
    <path
       style="fill:none;fill-opacity:1;stroke:#ffffff;stroke-width:0.264583"
       d="M -0.70965647,416.82355 H 1143.4347 Z"
       id="path17806" />
    <path
       style="fill:none;fill-opacity:1;stroke:#ffffff;stroke-width:0.264583"
       d="M -0.70964517,0.29395798 H 1143.4347 Z"
       id="path17839" />
    <path
       style="fill:none;fill-opacity:1;stroke:#ffffff;stroke-width:0.264583"
       d="M -0.70965647,15.440489 H 1143.4347 Z"
       id="path17841" />
    <path
       style="fill:none;fill-opacity:1;stroke:#ffffff;stroke-width:0.264583"
       d="M -0.70963875,30.587019 H 1143.4347 Z"
       id="path17843" />
    <path
       style="fill:none;fill-opacity:1;stroke:#ffffff;stroke-width:0.264583"
       d="M -0.70963874,45.73355 H 1143.4347 Z"
       id="path17845" />
    <path
       style="fill:none;fill-opacity:1;stroke:#ffffff;stroke-width:0.264583"
       d="M -0.70962745,60.88008 H 1143.4347 Z"
       id="path17847" />
    <path
       style="fill:none;fill-opacity:1;stroke:#ffffff;stroke-width:0.264583"
       d="M -0.70963875,76.026611 H 1143.4347 Z"
       id="path17849" />
    <path
       style="fill:none;fill-opacity:1;stroke:#ffffff;stroke-width:0.264583"
       d="M -0.70962102,91.173142 H 1143.4346 Z"
       id="path17851" />
    <path
       style="fill:none;fill-opacity:1;stroke:#ffffff;stroke-width:0.264583"
       d="M -0.70962102,106.31967 H 1143.4346 Z"
       id="path17853" />
    <path
       style="fill:none;fill-opacity:1;stroke:#ffffff;stroke-width:0.264583"
       d="M -0.70964517,121.4662 H 1143.4347 Z"
       id="path17855" />
    <path
       style="fill:none;fill-opacity:1;stroke:#ffffff;stroke-width:0.264583"
       d="M -0.70965647,136.61273 H 1143.4347 Z"
       id="path17857" />
    <path
       style="fill:none;fill-opacity:1;stroke:#ffffff;stroke-width:0.264583"
       d="M -0.70963874,151.75926 H 1143.4347 Z"
       id="path17859" />
    <path
       style="fill:none;fill-opacity:1;stroke:#ffffff;stroke-width:0.264583"
       d="M -0.70963874,166.90579 H 1143.4347 Z"
       id="path17861" />
    <path
       style="fill:none;fill-opacity:1;stroke:#ffffff;stroke-width:0.264583"
       d="M -0.70964517,182.05233 H 1143.4347 Z"
       id="path17863" />
    <path
       style="fill:none;fill-opacity:1;stroke:#ffffff;stroke-width:0.264583"
       d="M -0.70965647,197.19886 H 1143.4347 Z"
       id="path17865" />
    <path
       style="fill:none;fill-opacity:1;stroke:#ffffff;stroke-width:0.264583"
       d="M -0.70963874,212.34539 H 1143.4347 Z"
       id="path17867" />
    <path
       style="fill:none;fill-opacity:1;stroke:#ffffff;stroke-width:0.264583"
       d="M -0.70963874,227.49192 H 1143.4347 Z"
       id="path17869" />
    <path
       style="fill:none;fill-opacity:1;stroke:#ffffff;stroke-width:0.264583"
       d="M -0.70966287,242.63845 H 1143.4347 Z"
       id="path17871" />
    <path
       style="fill:none;fill-opacity:1;stroke:#ffffff;stroke-width:0.264583"
       d="M -0.70967417,257.78498 H 1143.4347 Z"
       id="path17873" />
    <path
       style="fill:none;fill-opacity:1;stroke:#ffffff;stroke-width:0.264583"
       d="M -0.70965647,272.93151 H 1143.4347 Z"
       id="path17875" />
    <path
       style="fill:none;fill-opacity:1;stroke:#ffffff;stroke-width:0.264583"
       d="M -0.70965647,288.07804 H 1143.4347 Z"
       id="path17877" />
    <path
       style="fill:none;fill-opacity:1;stroke:#ffffff;stroke-width:0.264583"
       d="M -0.70967744,303.22457 H 1143.4347 Z"
       id="path17879" />
    <path
       style="fill:none;fill-opacity:1;stroke:#ffffff;stroke-width:0.264583"
       d="M -0.70968874,318.3711 H 1143.4347 Z"
       id="path17881" />
    <path
       style="fill:none;fill-opacity:1;stroke:#ffffff;stroke-width:0.264583"
       d="M -0.70967102,333.51763 H 1143.4347 Z"
       id="path17883" />
    <path
       style="fill:none;fill-opacity:1;stroke:#ffffff;stroke-width:0.264583"
       d="M -0.70967102,348.66416 H 1143.4347 Z"
       id="path17885" />
    <path
       style="fill:none;fill-opacity:1;stroke:#ffffff;stroke-width:0.264583"
       d="M -0.70966287,363.81069 H 1143.4347 Z"
       id="path17887" />
    <path
       style="fill:none;fill-opacity:1;stroke:#ffffff;stroke-width:0.264583"
       d="M -0.70967417,378.95722 H 1143.4347 Z"
       id="path17889" />
    <path
       style="fill:none;fill-opacity:1;stroke:#ffffff;stroke-width:0.264583"
       d="M -0.70965647,394.10375 H 1143.4347 Z"
       id="path17891" />
    <path
       style="fill:none;fill-opacity:1;stroke:#ffffff;stroke-width:0.264583"
       d="M -0.70965647,409.25028 H 1143.4347 Z"
       id="path17893" />
  </g>
  <g
     inkscape:label="Design"
     inkscape:groupmode="layer"
     id="g18007"
     transform="matrix(1,0,0,0.91331243,0.13749437,0.18904898)"
     inkscape:path-effect="#path-effect18109"
     class="UnoptimicedTransforms">
    <path
       style="fill:none;fill-opacity:1;stroke:#ffffff;stroke-width:0.264583"
       d="m -31.116463,109.2732 c 59.593227,-13.369125 114.817383,-0.40677 169.198683,23.53441 48.30213,21.26663 98.60536,52.60699 148.85973,81.99575 0,0 3e-5,1e-5 3e-5,1e-5 46.77728,27.35755 93.78358,53.18808 144.76731,73.05197 47.3582,18.44971 95.74162,30.63083 145.98817,34.32719 49.35523,3.62332 98.35145,-1.17641 147.19616,-13.31065 0,-10e-6 7e-5,-2e-5 7e-5,-2e-5 51.36661,-12.7697 99.85069,-32.85684 147.55485,-55.7021 52.45091,-25.12066 102.23705,-52.75091 150.84306,-72.62516 55.698,-22.77085 110.3893,-35.32702 167.3594,-20.46217 -56.9701,-14.86485 -111.6614,-2.30868 -167.3594,20.46217 -48.60601,19.87425 -98.39215,47.5045 -150.84306,72.62516 -47.70416,22.84526 -96.18824,42.9324 -147.55485,55.7021 0,0 -7e-5,10e-6 -7e-5,10e-6 -48.84471,12.13425 -97.84093,16.93398 -147.19616,13.31066 -50.24655,-3.69636 -98.62997,-15.87748 -145.98817,-34.32719 -50.98371,-19.86389 -97.99001,-45.69441 -144.76728,-73.05195 0,0 -6e-5,-3e-5 -6e-5,-3e-5 C 236.68758,185.4146 186.38435,154.07424 138.08222,132.80761 83.70092,108.86643 28.476764,95.904075 -31.116463,109.2732 Z"
       id="path17895"
       inkscape:original-d="M -0.70964517,7.8672233 H 1143.4347 Z" />
    <path
       style="fill:none;fill-opacity:1;stroke:#ffffff;stroke-width:0.264583"
       d="m -37.798906,133.44102 c 59.631518,-18.36943 115.189968,-10.4576 170.056766,8.86023 48.84015,17.20042 99.50131,44.46307 150.4753,70.7224 0,0 6e-5,2e-5 6e-5,2e-5 47.42084,24.43512 94.8785,47.80331 146.60786,65.97781 48.01733,16.86673 96.97527,28.04921 147.94899,31.48667 50.07974,3.35716 99.64477,-1.03459 149.17668,-12.0944 0,-1e-5 7e-5,-2e-5 7e-5,-2e-5 52.10911,-11.65885 101.04265,-29.84362 149.34178,-50.20838 52.02731,-21.94116 104.34806,-46.76681 152.265,-62.28502 56.1119,-18.16336 111.058,-25.43682 167.9862,-5.16475 -56.9282,-20.27207 -111.8743,-12.99861 -167.9862,5.16475 -47.91694,15.51821 -100.23769,40.34386 -152.265,62.28502 -48.29913,20.36476 -97.23267,38.54953 -149.34178,50.20838 0,0 -7e-5,10e-6 -7e-5,10e-6 -49.53191,11.05982 -99.09694,15.45157 -149.17668,12.09441 -50.97372,-3.43746 -99.93166,-14.61994 -147.94899,-31.48667 -51.72936,-18.1745 -99.18702,-41.54269 -146.60786,-65.9778 0,-1e-5 -6e-5,-3e-5 -6e-5,-3e-5 C 231.75917,186.76432 181.09801,159.50167 132.25786,142.30125 77.391062,122.98342 21.832612,115.07159 -37.798906,133.44102 Z"
       id="path17897"
       inkscape:original-d="M -0.70965647,23.013754 H 1143.4347 Z" />
    <path
       style="fill:none;fill-opacity:1;stroke:#ffffff;stroke-width:0.264583"
       d="m -42.216472,155.68447 c 59.526122,-22.76706 115.265546,-19.36169 170.458762,-4.20896 49.20564,13.51522 100.1275,37.11824 151.62266,60.49046 0,0 3e-5,1e-5 3e-5,1e-5 47.93097,21.76417 95.62785,42.85793 147.93165,59.46925 48.49724,15.39805 97.8318,25.65093 149.32109,28.84096 50.59404,3.10486 100.51892,-0.91121 150.53068,-10.97552 -1e-5,-1e-5 6e-5,-1e-5 6e-5,-1e-5 52.64716,-10.62924 101.81114,-27.05394 150.53899,-45.13562 52.64075,-19.53855 104.81097,-40.83056 153.16425,-52.83871 56.3493,-13.98057 111.3862,-16.50209 168.1219,8.57673 -56.7357,-25.07882 -111.7726,-22.5573 -168.1219,-8.57673 -48.35328,12.00815 -100.5235,33.30016 -153.16425,52.83871 -48.72785,18.08168 -97.89183,34.50638 -150.53899,45.13562 0,0 -7e-5,0 -7e-5,0 -50.01175,10.06432 -99.93663,14.08039 -150.53067,10.97553 C 525.62843,297.08616 476.29387,286.83328 427.79663,271.43523 375.49284,254.82392 327.79597,233.73015 279.86501,211.966 c 0,-1e-5 -6e-5,-3e-5 -6e-5,-3e-5 C 228.36979,188.59375 177.44793,164.99073 128.24229,151.47551 73.049074,136.32278 17.30965,132.91741 -42.216472,155.68447 Z"
       id="path17899"
       inkscape:original-d="M -0.70963875,38.160285 H 1143.4347 Z" />
    <path
       style="fill:none;fill-opacity:1;stroke:#ffffff;stroke-width:0.264583"
       d="m -44.738011,176.07974 c 59.29692,-26.57963 115.086016,-27.15268 170.469211,-15.7184 49.4294,10.21251 100.51736,30.54152 152.37132,51.27645 48.33827,19.34156 96.07521,38.34449 148.82031,53.5198 48.82723,14.04381 98.37277,23.43602 150.20168,26.39053 50.93355,2.86639 101.04434,-0.80723 151.36401,-9.95695 0,-10e-6 7e-5,-2e-5 7e-5,-2e-5 53.02108,-9.68357 102.22261,-24.4916 151.24667,-40.48944 52.99952,-17.29933 105.05945,-35.4745 153.62784,-44.28209 56.4387,-10.21808 111.429,-8.508 167.8449,20.78938 -56.4159,-29.29738 -111.4062,-31.00746 -167.8449,-20.78938 -48.56839,8.80759 -100.62832,26.98276 -153.62784,44.28209 -49.02406,15.99784 -98.22559,30.80587 -151.24667,40.48944 -1e-5,0 -2e-5,10e-6 -3e-5,10e-6 -50.31969,9.14973 -100.43049,12.82335 -151.36405,9.95696 -51.82891,-2.95451 -101.37445,-12.34672 -150.20168,-26.39053 -52.74508,-15.1753 -100.482,-34.17822 -148.82025,-53.51978 1e-5,0 -6e-5,-2e-5 -6e-5,-2e-5 C 226.24856,190.90286 175.1606,170.57385 125.7312,160.36134 70.348005,148.92706 14.558909,149.50011 -44.738011,176.07974 Z"
       id="path17901"
       inkscape:original-d="M -0.70963874,53.306815 H 1143.4347 Z" />
    <path
       style="fill:none;fill-opacity:1;stroke:#ffffff;stroke-width:0.264583"
       d="m -45.704993,194.71356 c 58.963008,-29.8256 114.691346,-33.86596 170.149463,-25.71621 49.53669,7.28762 100.70601,24.70517 152.78628,43.0538 0,0 3e-5,0 3e-5,0 48.67476,17.16356 96.25715,34.25318 149.34908,48.12012 49.0341,12.80333 98.65476,21.40317 150.6798,24.13415 51.13047,2.6415 101.28546,-0.72367 151.77341,-9.04117 0,-1e-5 7e-5,-1e-5 7e-5,-1e-5 53.26922,-8.8241 102.3365,-22.1589 151.55677,-36.27295 53.17882,-15.25204 105.10598,-30.66775 153.73659,-36.60721 56.4069,-6.87001 111.2383,-1.43707 167.2296,31.50425 -55.9913,-32.94132 -110.8227,-38.37426 -167.2296,-31.50425 -48.63061,5.93946 -100.55777,21.35517 -153.73659,36.60721 -49.22027,14.11405 -98.28755,27.44885 -151.55677,36.27295 -10e-6,0 -2e-5,0 -3e-5,0 -50.48796,8.31751 -100.64297,11.68268 -151.77345,9.04118 -52.02504,-2.73098 -101.6457,-11.33082 -150.6798,-24.13415 -53.09192,-13.86693 -100.6743,-30.95655 -149.34905,-48.1201 0,-1e-5 -6e-5,-2e-5 -6e-5,-2e-5 C 225.15048,193.70252 173.98116,176.28497 124.44447,168.99735 68.986353,160.8476 13.258015,164.88796 -45.704993,194.71356 Z"
       id="path17903"
       inkscape:original-d="M -0.70962745,68.453346 H 1143.4347 Z" />
    <path
       style="fill:none;fill-opacity:1;stroke:#ffffff;stroke-width:0.264583"
       d="m -45.431659,211.68315 c 58.542746,-32.5243 114.119696,-39.53868 169.557829,-34.25333 49.5493,4.73222 100.72822,19.58216 152.92799,35.79284 0,0 3e-5,1e-5 3e-5,1e-5 48.97575,15.22598 96.20167,30.57166 149.58703,43.25805 49.14202,11.67505 98.7293,19.54963 150.83622,22.06891 51.21384,2.42969 101.30082,-0.66167 151.84652,-8.2302 0,-1e-5 7e-5,-1e-5 7e-5,-1e-5 53.4283,-8.05255 102.20484,-20.05647 151.55294,-32.48657 53.22611,-13.40821 104.98352,-26.39281 153.56493,-29.8024 56.2788,-3.929 110.8626,4.73084 166.3456,40.75621 -55.483,-36.02537 -110.0668,-44.68521 -166.3456,-40.75621 -48.58141,3.40959 -100.33882,16.39419 -153.56493,29.8024 -49.3481,12.4301 -98.12464,24.43402 -151.55294,32.48657 0,0 -7e-5,0 -7e-5,0 -50.5457,7.56854 -100.63268,10.6599 -151.84652,8.23021 -52.10692,-2.51928 -101.6942,-10.39386 -150.83622,-22.06891 -53.38535,-12.68639 -100.61126,-28.03207 -149.587,-43.25804 0,0 -6e-5,-2e-5 -6e-5,-2e-5 -52.19977,-16.21068 -103.37869,-31.06062 -152.92799,-35.79284 -55.438133,-5.28535 -111.015083,1.72903 -169.557829,34.25333 z"
       id="path17905"
       inkscape:original-d="M -0.70963875,83.599876 H 1143.4347 Z" />
    <path
       style="fill:none;fill-opacity:1;stroke:#ffffff;stroke-width:0.264583"
       d="m -44.204864,227.09624 c 58.053696,-34.69591 113.407312,-44.20972 168.749384,-41.38352 49.48661,2.53547 100.61744,15.14497 152.85243,29.46083 0,0 3e-5,0 3e-5,0 49.28231,13.52449 95.92532,27.28473 149.5967,38.91858 49.17257,10.65658 98.64307,17.87127 150.74352,20.1902 51.2094,2.23019 101.14307,-0.62244 151.66189,-7.52564 0,0 7e-5,-10e-6 7e-5,-10e-6 53.53379,-7.37018 101.87186,-18.18334 151.31058,-29.12817 53.17653,-11.772 104.72996,-22.63573 153.18106,-23.85219 56.0774,-1.38623 110.3469,10.01856 165.2581,48.58397 -54.9112,-38.56541 -109.1807,-49.9702 -165.2581,-48.58397 -48.4511,1.21646 -100.00453,12.08019 -153.18106,23.85219 -49.43872,10.94483 -97.77679,21.75799 -151.31058,29.12817 0,0 -4e-5,10e-6 -4e-5,10e-6 -50.51883,6.9032 -100.4525,9.75583 -151.66192,7.52564 -52.10045,-2.31893 -101.57095,-9.53362 -150.74352,-20.1902 -53.67137,-11.63385 -100.31437,-25.39408 -149.59667,-38.91857 0,0 -6e-5,-1e-5 -6e-5,-1e-5 -52.23499,-14.31586 -103.36582,-26.92536 -152.85243,-29.46083 -55.342072,-2.8262 -110.695688,6.68761 -168.749384,41.38352 z"
       id="path17907"
       inkscape:original-d="M -0.70962102,98.746407 H 1143.4346 Z" />
    <path
       style="fill:none;fill-opacity:1;stroke:#ffffff;stroke-width:0.264583"
       d="M -42.284269,241.07111 C 15.228408,204.70962 70.304399,193.15136 125.49197,193.9077 c 49.36598,0.68467 100.4052,11.36499 152.61102,24.02189 0,0 3e-5,1e-5 3e-5,1e-5 49.64538,12.05501 95.4293,24.37396 149.43433,35.08377 49.14458,9.74473 98.43779,16.3626 150.46602,18.49177 51.13964,2.04199 100.85905,-0.60729 151.28896,-6.92859 2e-5,-10e-6 4e-5,-10e-6 7e-5,-10e-6 53.62023,-6.77787 101.37375,-16.53692 150.89677,-26.19303 53.05823,-10.3436 104.38293,-19.38285 152.64673,-18.73738 55.8241,0.76864 109.7331,14.4516 164.0282,55.03032 -54.2951,-40.57872 -108.2041,-54.26168 -164.0282,-55.03032 -48.2638,-0.64547 -99.5885,8.39378 -152.64673,18.73738 -49.52302,9.65611 -97.27654,19.41516 -150.89677,26.19303 0,0 -4e-5,0 -4e-5,0 -50.42992,6.32131 -100.14934,8.97059 -151.28899,6.9286 -52.02823,-2.12917 -101.32144,-8.74704 -150.46602,-18.49177 -54.00502,-10.7098 -99.78893,-23.02875 -149.4343,-35.08377 1e-5,0 -6e-5,-1e-5 -6e-5,-1e-5 C 225.89717,205.27269 174.85795,194.59237 125.49197,193.9077 70.304399,193.15136 15.228408,204.70962 -42.284269,241.07111 Z"
       id="path17909"
       inkscape:original-d="M -0.70962102,113.89294 H 1143.4346 Z" />
    <path
       style="fill:none;fill-opacity:1;stroke:#ffffff;stroke-width:0.264583"
       d="m -39.902198,253.73652 c 56.935719,-37.54297 111.696369,-50.71115 166.687308,-51.65247 49.20316,-0.83437 100.12092,8.21222 152.2507,19.43711 0,0 3e-5,1e-5 3e-5,1e-5 50.13101,10.81416 94.69418,21.81728 149.14977,31.73292 49.07422,8.9354 98.1504,15.01669 150.05984,16.96564 51.02369,1.86385 100.4898,-0.61761 150.78809,-6.43976 2e-5,-10e-6 4e-5,-10e-6 7e-5,-10e-6 53.72095,-6.27598 100.73884,-15.11294 150.37036,-23.67377 52.89452,-9.12056 103.97753,-16.61942 152.01723,-14.43503 55.5381,2.54739 109.0596,18.05817 162.7128,60.14182 -53.6532,-42.08365 -107.1747,-57.59443 -162.7128,-60.14182 -48.0397,-2.18439 -99.12271,5.31447 -152.01723,14.43503 -49.63152,8.56083 -96.64941,17.39779 -150.37036,23.67377 -3e-5,0 -5e-5,0 -7e-5,0 -50.29829,5.82216 -99.7644,8.30362 -150.78809,6.43977 -51.90944,-1.94895 -100.98562,-8.03024 -150.05984,-16.96564 -54.45558,-9.91563 -99.01874,-20.91875 -149.14974,-31.73292 0,0 -6e-5,-1e-5 -6e-5,-1e-5 -52.12978,-11.22489 -103.04754,-20.27148 -152.2507,-19.43711 -54.990939,0.94132 -109.751589,14.1095 -166.687308,51.65247 z"
       id="path17911"
       inkscape:original-d="M -0.70964517,129.03947 H 1143.4347 Z" />
    <path
       style="fill:none;fill-opacity:1;stroke:#ffffff;stroke-width:0.264583"
       d="M -37.263632,265.23173 C 19.074415,226.96861 73.497522,212.6037 128.26472,210.31878 c 49.01241,-2.03724 99.79172,5.65499 151.81388,15.66444 0,0 6e-5,1e-5 6e-5,1e-5 47.50236,9.1588 97.03992,20.15371 148.78648,28.84239 48.97491,8.2237 97.81293,13.82527 149.57288,15.60219 50.87735,1.69425 100.07057,-0.65492 150.21053,-6.05938 0,0 7e-5,0 7e-5,0 53.86624,-5.86436 99.9895,-13.90564 149.78188,-21.56048 52.70486,-8.0984 103.54543,-14.32895 151.3418,-10.91837 55.2369,3.96328 108.3615,20.86908 161.3635,63.96872 -53.002,-43.09964 -106.1266,-60.00544 -161.3635,-63.96872 -47.79637,-3.41058 -98.63694,2.81997 -151.3418,10.91837 -49.79238,7.65484 -95.91564,15.69612 -149.78188,21.56048 0,0 -7e-5,0 -7e-5,0 -50.13996,5.40446 -99.33318,7.75363 -150.21053,6.05938 -51.75995,-1.77692 -100.59797,-7.37849 -149.57288,-15.60219 -51.74656,-8.68868 -101.28412,-19.68359 -148.78648,-28.84239 0,0 -6e-5,-1e-5 -6e-5,-1e-5 C 228.05644,215.97377 177.27713,208.28154 128.26472,210.31878 73.497522,212.6037 19.074415,226.96861 -37.263632,265.23173 Z"
       id="path17913"
       inkscape:original-d="M -0.70965647,144.186 H 1143.4347 Z" />
    <path
       style="fill:none;fill-opacity:1;stroke:#ffffff;stroke-width:0.264583"
       d="m -34.546279,275.70653 c 55.734108,-38.54559 109.811948,-53.71628 164.342069,-57.00999 48.80654,-2.94067 99.44225,3.65993 151.33841,12.65876 47.38198,8.23524 96.79514,18.35822 148.38174,26.38574 48.85747,7.60391 97.45251,12.77862 149.0448,14.3901 50.71319,1.53144 99.63071,-0.7208 149.59846,-5.78723 2e-5,0 4e-5,0 7e-5,0 54.0779,-5.54184 99.1475,-12.90815 149.17358,-19.84059 52.50539,-7.27098 103.11426,-12.49293 150.66305,-8.15695 54.9362,5.03106 107.6705,22.91791 160.0284,66.56539 -52.3579,-43.64748 -105.0922,-61.53433 -160.0284,-66.56539 -47.54879,-4.33598 -98.15766,0.88597 -150.66305,8.15695 -50.02608,6.93244 -95.09568,14.29875 -149.17358,19.84059 0,0 -4e-5,0 -4e-5,0 -49.96776,5.06643 -98.88529,7.31867 -149.59849,5.78723 -51.59229,-1.61148 -100.18733,-6.78619 -149.0448,-14.3901 -51.58658,-8.02752 -100.99972,-18.15049 -148.38168,-26.38573 0,0 -6e-5,-1e-5 -6e-5,-1e-5 -51.89616,-8.99883 -102.53187,-15.59943 -151.33841,-12.65876 -54.530121,3.29371 -108.607961,18.4644 -164.342069,57.00999 z"
       id="path17915"
       inkscape:original-d="M -0.70963874,159.33253 H 1143.4347 Z" />
    <path
       style="fill:none;fill-opacity:1;stroke:#ffffff;stroke-width:0.264583"
       d="M -31.900613,285.32125 C 23.236965,246.90632 76.975279,231.2977 131.26745,227.30968 c 48.59707,-3.56259 99.09474,2.19183 150.8577,10.37184 47.25862,7.48749 96.54336,16.8753 147.96614,24.33362 48.7302,7.06946 97.09119,11.86565 148.50704,13.31638 50.54063,1.37343 99.19364,-0.81695 148.98493,-5.62265 0,0 7e-5,0 7e-5,0 54.35714,-5.30541 98.24628,-12.1134 148.57948,-18.49897 52.30914,-6.63058 102.70744,-11.09065 150.01729,-6.11649 54.6499,5.76691 107.0153,24.24085 158.7509,67.98999 -51.7356,-43.74914 -104.101,-62.22308 -158.7509,-67.98999 -47.30985,-4.97416 -97.70815,-0.51409 -150.01729,6.11649 -50.3332,6.38557 -94.22234,13.19356 -148.57948,18.49897 0,0 -4e-5,0 -4e-5,0 -49.7913,4.8057 -98.44432,6.99608 -148.98496,5.62265 -51.41585,-1.45073 -99.77684,-6.24692 -148.50704,-13.31638 -51.42276,-7.45832 -100.70748,-16.84613 -147.96608,-24.33361 0,0 -6e-5,-1e-5 -6e-5,-1e-5 -51.76296,-8.18001 -102.26063,-13.93443 -150.8577,-10.37184 -54.292171,3.98802 -108.030485,19.59664 -163.168063,58.01157 z"
       id="path17917"
       inkscape:original-d="M -0.70963874,174.47906 H 1143.4347 Z" />
    <path
       style="fill:none;fill-opacity:1;stroke:#ffffff;stroke-width:0.264583"
       d="M -29.449755,294.24671 C 25.11156,256.35019 78.52851,240.64749 132.59303,236.2582 c 48.39417,-3.92197 98.76894,1.21363 150.4006,8.75239 0,0 3e-5,0 3e-5,0 47.14055,6.90237 96.30093,15.6807 147.56412,22.65388 48.59912,6.61295 96.74572,11.07382 147.98282,12.36632 50.36611,1.218 98.77658,-0.94518 148.39392,-5.56452 2e-5,-1e-5 5e-5,-1e-5 7e-5,-1e-5 54.66495,-5.14869 97.35037,-11.51556 148.02525,-17.51787 52.1263,-6.1681 102.34399,-10.09908 149.43466,-4.759 54.3896,6.18853 106.4208,24.87684 157.57,68.30458 -51.1492,-43.42774 -103.1804,-62.11605 -157.57,-68.30458 -47.09067,-5.34008 -97.30836,-1.4091 -149.43466,4.759 -50.67488,6.00231 -93.3603,12.36918 -148.02525,17.51787 0,0 -7e-5,0 -7e-5,0 -49.61734,4.61935 -98.02781,6.78253 -148.39392,5.56453 -51.2371,-1.2925 -99.3837,-5.75337 -147.98282,-12.36632 -51.26318,-6.97318 -100.42355,-15.7515 -147.56409,-22.65387 0,0 -6e-5,-1e-5 -6e-5,-1e-5 -51.63166,-7.53876 -102.00643,-12.67436 -150.4006,-8.75239 -54.06452,4.38929 -107.48147,20.09199 -162.042785,57.98851 z"
       id="path17919"
       inkscape:original-d="M -0.70964517,189.62559 H 1143.4347 Z" />
    <path
       style="fill:none;fill-opacity:1;stroke:#ffffff;stroke-width:0.264583"
       d="m -27.289537,302.66424 c 54.017378,-37.01662 107.142538,-52.49442 160.999587,-57.01443 48.20669,-4.03891 98.48207,0.68636 149.99143,7.74598 0,0 6e-5,1e-5 6e-5,1e-5 47.03432,6.46572 96.08039,14.74818 147.19375,21.31146 48.46823,6.2262 96.42734,10.38921 147.48714,11.52357 50.19338,1.06272 98.39034,-1.1074 147.8403,-5.61129 0,0 7e-5,-10e-6 7e-5,-10e-6 51.03336,-4.70365 100.41271,-11.54608 147.52833,-16.87694 51.96415,-5.87303 102.03841,-9.49285 148.93877,-4.04271 54.1656,6.31505 105.9089,24.86746 156.5203,67.5751 -50.6114,-42.70764 -102.3547,-61.26005 -156.5203,-67.5751 -46.90036,-5.45014 -96.97462,-1.83032 -148.93877,4.04271 -47.11562,5.33086 -96.49497,12.17329 -147.52833,16.87694 0,0 -7e-5,10e-6 -7e-5,10e-6 -49.44996,4.50389 -97.64692,6.67401 -147.8403,5.61129 -51.0598,-1.13436 -99.01891,-5.29737 -147.48714,-11.52357 -51.11336,-6.56328 -100.15943,-14.84574 -147.19375,-21.31146 0,0 -6e-5,-1e-5 -6e-5,-1e-5 -51.50936,-7.05962 -101.78474,-11.78489 -149.99143,-7.74598 -53.857049,4.52001 -106.982209,19.99781 -160.999587,57.01443 z"
       id="path17921"
       inkscape:original-d="M -0.70965647,204.77212 H 1143.4347 Z" />
    <path
       style="fill:none;fill-opacity:1;stroke:#ffffff;stroke-width:0.264583"
       d="m -25.488465,310.76567 c 53.517008,-35.80231 106.390347,-50.76204 160.068675,-55.16582 48.04216,-3.93447 98.24885,0.56919 149.65001,7.29515 46.94483,6.16235 95.89049,14.04956 146.86679,20.26849 48.33969,5.9002 96.14155,9.79647 147.02676,10.7701 50.02365,0.90489 98.03918,-1.30568 147.32987,-5.76095 0,-10e-6 6e-5,-10e-6 6e-5,-10e-6 50.86554,-4.65315 100.10231,-11.34829 147.09788,-16.55324 51.82723,-5.73354 101.80068,-9.24421 148.54682,-3.92209 53.9861,6.16707 105.4982,24.25699 155.6323,65.87135 -50.1341,-41.61436 -101.6462,-59.70428 -155.6323,-65.87135 -46.74614,-5.32212 -96.71959,-1.81145 -148.54682,3.92209 -46.99557,5.20495 -96.23234,11.90009 -147.09788,16.55324 0,0 -3e-5,0 -3e-5,0 -49.2907,4.45528 -97.30624,6.66585 -147.3299,5.76096 -50.88521,-0.97363 -98.68707,-4.8699 -147.02676,-10.7701 -50.97628,-6.21893 -99.92192,-14.10613 -146.86673,-20.26848 0,-1e-5 -6e-5,-1e-5 -6e-5,-1e-5 -51.40116,-6.72596 -101.60785,-11.22962 -149.65001,-7.29515 -53.678328,4.40378 -106.551667,19.36351 -160.068675,55.16582 z"
       id="path17923"
       inkscape:original-d="M -0.70963874,219.91865 H 1143.4347 Z" />
    <path
       style="fill:none;fill-opacity:1;stroke:#ffffff;stroke-width:0.264583"
       d="M -24.087827,318.75338 C 28.982829,284.4718 81.653756,270.29666 135.18937,266.23137 c 47.90678,-3.63082 98.08162,0.81931 149.39166,7.33929 46.87517,5.97605 95.73598,13.55466 146.58841,19.48421 48.21395,5.6251 95.88795,9.27881 146.60021,10.08616 49.85574,0.74163 97.72059,-1.54215 146.85929,-6.01104 0,-1e-5 7e-5,-1e-5 7e-5,-1e-5 50.71504,-4.66784 99.83117,-11.31277 146.73474,-16.52122 51.71733,-5.73645 101.63622,-9.32297 148.26985,-4.34784 53.8573,5.76664 105.2038,23.09242 154.9316,63.267 -49.7278,-40.17458 -101.0743,-57.50036 -154.9316,-63.267 -46.63363,-4.97513 -96.55252,-1.38861 -148.26985,4.34784 -46.90357,5.20845 -96.0197,11.85338 -146.73474,16.52122 0,0 -4e-5,0 -4e-5,0 -49.13871,4.4689 -97.00357,6.75268 -146.85932,6.01105 -50.71226,-0.80735 -98.38626,-4.46106 -146.60021,-10.08616 -50.85241,-5.92955 -99.7132,-13.50815 -146.58835,-19.48421 0,0 -6e-5,0 -6e-5,0 -51.31004,-6.51998 -101.48488,-10.97011 -149.39166,-7.33929 -53.535614,4.06529 -106.206541,18.24043 -159.277197,52.52201 z"
       id="path17925"
       inkscape:original-d="M -0.70963874,235.06518 H 1143.4347 Z" />
    <path
       style="fill:none;fill-opacity:1;stroke:#ffffff;stroke-width:0.264583"
       d="m -23.101575,326.84026 c 52.687932,-32.48328 105.214313,-45.63489 158.649165,-49.16517 47.80529,-3.15113 97.99026,1.39201 149.22715,7.81471 0,0 4e-5,0 4e-5,0 46.82682,5.88961 95.61796,13.23138 146.35757,18.91501 48.08977,5.39028 95.66032,8.81809 146.19784,9.45037 49.68606,0.56979 97.42531,-1.81908 146.41616,-6.35866 0,0 6e-5,0 6e-5,0 50.57796,-4.74231 99.5927,-11.42443 146.43153,-16.75274 51.63346,-5.86732 101.54585,-9.69654 148.11246,-5.26692 53.7836,5.1373 105.0376,21.42342 154.4398,59.83965 -49.4022,-38.41623 -100.6562,-54.70235 -154.4398,-59.83965 -46.56661,-4.42962 -96.479,-0.6004 -148.11246,5.26692 -46.83883,5.32831 -95.85357,12.01043 -146.43153,16.75274 -48.99087,4.53958 -96.73014,6.92845 -146.41622,6.35866 -50.53752,-0.63228 -98.10807,-4.06009 -146.19784,-9.45037 -50.7396,-5.68363 -99.53073,-13.0254 -146.35755,-18.915 10e-6,0 -6e-5,-10e-6 -6e-5,-10e-6 -51.23689,-6.4227 -101.42186,-10.96584 -149.22715,-7.81471 -53.434852,3.53028 -105.961233,16.68189 -158.649165,49.16517 z"
       id="path17927"
       inkscape:original-d="M -0.70966287,250.21171 H 1143.4347 Z" />
    <path
       style="fill:none;fill-opacity:1;stroke:#ffffff;stroke-width:0.264583"
       d="m -22.516322,335.24966 c 52.377593,-30.43704 104.8248,-42.35469 158.205432,-45.18027 47.74087,-2.5196 97.98244,2.24069 149.16276,8.65466 0,0 3e-5,0 3e-5,0 46.79958,5.88477 95.5337,13.04559 146.16693,18.51443 47.96406,5.18422 95.4467,8.3947 145.80173,8.83962 49.50858,0.386 97.13748,-2.13883 145.97896,-6.80044 0,0 7e-5,-1e-5 7e-5,-1e-5 53.69135,-5.18374 96.15505,-11.28485 146.17254,-17.21703 51.5719,-6.11037 101.52587,-10.32987 148.07287,-6.62253 53.7676,4.30402 105.0083,19.30237 154.174,55.67074 -49.1657,-36.36837 -100.4064,-51.36672 -154.174,-55.67074 -46.547,-3.70734 -96.50097,0.51216 -148.07287,6.62253 -50.01749,5.93218 -92.48119,12.03329 -146.17254,17.21703 0,0 -3e-5,0 -3e-5,0 -48.8415,4.66162 -96.47041,7.18645 -145.979,6.80045 -50.35503,-0.44492 -97.83767,-3.6554 -145.80173,-8.83962 -50.63324,-5.46885 -99.36737,-12.62966 -146.16696,-18.51443 -51.18032,-6.41397 -101.42189,-11.17426 -149.16276,-8.65466 -53.380632,2.82558 -105.827839,14.74323 -158.205432,45.18027 z"
       id="path17929"
       inkscape:original-d="M -0.70967417,265.35824 H 1143.4347 Z" />
    <path
       style="fill:none;fill-opacity:1;stroke:#ffffff;stroke-width:0.264583"
       d="m -22.291406,344.2155 c 52.147542,-28.17342 104.58756,-38.67605 157.963746,-40.65516 47.715,-1.7615 98.06374,3.3168 149.20025,9.78927 0,0 6e-5,0 6e-5,0 49.64775,6.30503 92.58993,12.66003 146.00261,18.23313 47.83165,4.99462 95.22967,7.98769 145.38576,8.22916 49.31456,0.18663 96.83478,-2.50386 145.51711,-7.33259 0,-10e-6 6e-5,-10e-6 6e-5,-10e-6 53.07241,-5.32267 96.42076,-11.67859 145.93382,-17.88076 51.52612,-6.44855 101.56802,-11.1855 148.14299,-8.35408 53.8099,3.2932 105.1212,16.78433 154.147,50.84557 -49.0258,-34.06124 -100.3371,-47.55237 -154.147,-50.84557 -46.57497,-2.83142 -96.61687,1.90553 -148.14299,8.35408 -49.51306,6.20217 -92.86141,12.55809 -145.93382,17.88076 0,0 -6e-5,0 -6e-5,0 -48.68233,4.82874 -96.20255,7.51923 -145.51711,7.3326 -50.15609,-0.24147 -97.55411,-3.23454 -145.38576,-8.22916 -53.41268,-5.5731 -96.35486,-11.9281 -146.00261,-18.23313 0,0 -6e-5,0 -6e-5,0 -51.13651,-6.47247 -101.48525,-11.55077 -149.20025,-9.78927 -53.376186,1.97911 -105.816204,12.48174 -157.963746,40.65516 z"
       id="path17931"
       inkscape:original-d="M -0.70965647,280.50477 H 1143.4347 Z" />
    <path
       style="fill:none;fill-opacity:1;stroke:#ffffff;stroke-width:0.264583"
       d="m -22.358931,353.9822 c 52.00482,-25.7238 104.515417,-34.66066 157.938831,-35.68051 47.727,-0.90319 98.23804,4.56998 149.33682,11.14557 0,0 6e-5,10e-6 6e-5,10e-6 49.00916,6.32725 93.19783,12.71474 145.84456,18.01896 47.68503,4.80829 94.98652,7.57467 144.91556,7.59251 49.09236,-0.0322 96.48868,-2.91671 144.99089,-7.95086 0,0 7e-5,0 7e-5,0 52.48057,-5.50446 96.61947,-12.16248 145.68309,-18.70798 51.48681,-6.86348 101.65955,-12.22354 148.30835,-10.39725 53.9093,2.13271 105.3782,13.9271 154.367,45.45337 -48.9888,-31.52627 -100.4577,-43.32066 -154.367,-45.45337 -46.6488,-1.82629 -96.82154,3.53377 -148.30835,10.39725 -49.06362,6.5455 -93.20252,13.20352 -145.68309,18.70798 0,0 -7e-5,0 -7e-5,0 -48.50221,5.03415 -95.89853,7.91867 -144.99089,7.95086 -49.92904,-0.0178 -97.23053,-2.78422 -144.91556,-7.59251 -52.64673,-5.30422 -96.8354,-11.69171 -145.84456,-18.01896 0,0 -6e-5,-10e-6 -6e-5,-10e-6 C 233.81794,322.87167 183.3069,317.3985 135.5799,318.30169 82.156486,319.32154 29.645889,328.2584 -22.358931,353.9822 Z"
       id="path17933"
       inkscape:original-d="M -0.70965647,295.65131 H 1143.4347 Z" />
    <path
       style="fill:none;fill-opacity:1;stroke:#ffffff;stroke-width:0.264583"
       d="m -22.623657,364.80468 c 51.955524,-23.12043 104.619473,-30.37199 158.142207,-30.34986 47.77342,0.0278 98.50823,5.94806 149.56522,12.64753 48.56449,6.3924 93.62479,12.77074 145.66628,17.81688 47.51419,4.61122 94.68951,7.13194 144.34857,6.90156 48.82723,-0.27459 96.0646,-3.38002 144.35152,-8.65052 0,0 6e-5,-1e-5 6e-5,-1e-5 51.9242,-5.72327 96.69622,-12.71349 145.37986,-19.66012 51.44168,-7.33549 101.78329,-13.40168 148.54814,-12.68395 54.0626,0.85187 105.7782,10.79117 154.8381,39.58722 -49.0599,-28.79605 -100.7755,-38.73535 -154.8381,-39.58722 -46.76485,-0.71773 -97.10646,5.34846 -148.54814,12.68395 -48.68364,6.94663 -93.45566,13.93685 -145.37986,19.66012 -48.28693,5.27051 -95.52433,8.37594 -144.35158,8.65053 -49.65906,0.23038 -96.83438,-2.29034 -144.34857,-6.90156 -52.04147,-5.04614 -97.10175,-11.42447 -145.66623,-17.81687 10e-6,0 -5e-5,-10e-6 -5e-5,-10e-6 -51.05699,-6.69947 -101.7918,-12.6197 -149.56522,-12.64753 -53.522734,-0.0221 -106.186683,7.22943 -158.142207,30.34986 z"
       id="path17935"
       inkscape:original-d="M -0.70967744,310.79784 H 1143.4347 Z" />
    <path
       style="fill:none;fill-opacity:1;stroke:#ffffff;stroke-width:0.264583"
       d="m -22.963022,376.94839 c 52.004753,-20.39641 104.909179,-25.87523 158.582292,-24.75954 47.84659,1.00264 98.87756,7.39724 149.87362,14.216 0,0 6e-5,10e-6 6e-5,10e-6 48.24886,6.47054 93.91048,12.79362 145.43473,17.56896 47.30644,4.38853 94.30601,6.63436 143.63396,6.12648 48.50121,-0.54498 95.52215,-3.89647 143.54111,-9.42644 0,0 6e-5,-10e-6 6e-5,-10e-6 51.38418,-5.97083 96.61445,-13.30899 144.97529,-20.69605 51.37552,-7.84356 101.91778,-14.6752 148.8353,-15.14233 54.2645,-0.51858 106.3167,7.43975 155.5597,33.34409 -49.243,-25.90434 -101.2952,-33.86267 -155.5597,-33.34409 -46.91752,0.46713 -97.45978,7.29877 -148.8353,15.14233 -48.36084,7.38706 -93.59111,14.72522 -144.97529,20.69605 0,0 -3e-5,0 -3e-5,0 -48.01897,5.52997 -95.03992,8.88147 -143.54114,9.42645 -49.32795,0.50788 -96.32752,-1.73795 -143.63396,-6.12648 -51.52425,-4.77534 -97.18587,-11.09842 -145.43473,-17.56896 0,0 -6e-5,-10e-6 -6e-5,-10e-6 -50.99606,-6.81876 -102.02703,-13.21336 -149.87362,-14.216 -53.673113,-1.11569 -106.577539,4.36313 -158.582292,24.75954 z"
       id="path17937"
       inkscape:original-d="M -0.70968874,325.94437 H 1143.4347 Z" />
    <path
       style="fill:none;fill-opacity:1;stroke:#ffffff;stroke-width:0.264583"
       d="M -23.227175,390.68926 C 28.92935,373.10358 82.165287,369.45195 136.03719,371.68052 c 47.93148,1.99069 99.35288,8.86256 150.24574,15.76876 0,0 3e-5,0 3e-5,0 48.01407,6.53341 94.07268,12.74444 145.11084,17.2145 47.04642,4.1245 93.79852,6.05543 142.71275,5.23578 48.09298,-0.84802 94.81506,-4.46889 142.49272,-10.27303 50.8287,-6.23748 96.34125,-13.9256 144.41231,-21.772 51.26984,-8.36531 102.03741,-15.99704 149.13632,-17.69678 54.508,-1.94644 106.9858,3.93873 156.5269,26.8248 -49.5411,-22.88607 -102.0189,-28.77124 -156.5269,-26.8248 -47.09891,1.69974 -97.86648,9.33147 -149.13632,17.69678 -48.07106,7.8464 -93.58361,15.53452 -144.41231,21.772 0,0 -7e-5,0 -7e-5,0 -47.67763,5.80414 -94.39969,9.42501 -142.49265,10.27303 -48.91423,0.81965 -95.66633,-1.11128 -142.71275,-5.23578 -51.03814,-4.47006 -97.09675,-10.68109 -145.11081,-17.21449 0,0 -6e-5,-1e-5 -6e-5,-1e-5 -50.89286,-6.9062 -102.31426,-13.77807 -150.24574,-15.76876 -53.871903,-2.22857 -107.10784,1.42306 -159.264365,19.00874 z"
       id="path17939"
       inkscape:original-d="M -0.70967102,341.0909 H 1143.4347 Z" />
    <path
       style="fill:none;fill-opacity:1;stroke:#ffffff;stroke-width:0.264583"
       d="M -23.239032,406.31378 C 29.174589,391.59067 82.836892,389.78684 136.95165,393.1143 c 47.99754,2.95864 99.95269,10.28872 150.66071,17.22045 0,0 3e-5,1e-5 3e-5,1e-5 47.82337,6.55346 94.11199,12.58048 144.64892,16.68985 46.71601,3.80256 93.1247,5.36725 141.51765,4.19628 47.57794,-1.18861 93.89123,-5.10012 141.13015,-11.18422 50.221,-6.51283 95.8397,-14.53862 143.62556,-22.84163 51.10273,-8.87691 102.11275,-17.31783 149.41123,-20.26792 54.784,-3.39807 107.7748,0.35674 157.7307,20.13409 -49.9559,-19.77735 -102.9467,-23.53216 -157.7307,-20.13409 -47.29848,2.95009 -98.3085,11.39101 -149.41123,20.26792 -47.78586,8.30301 -93.40456,16.3288 -143.62556,22.84163 0,0 -6e-5,10e-6 -6e-5,10e-6 -47.2389,6.0841 -93.55217,9.9956 -141.13009,11.18421 -48.39295,1.17097 -94.80164,-0.39372 -141.51765,-4.19628 -50.53692,-4.10937 -96.82553,-10.13639 -144.64889,-16.68985 0,0 -6e-5,-1e-5 -6e-5,-1e-5 C 236.90434,403.40302 184.94919,396.07294 136.95165,393.1143 82.836892,389.78684 29.174589,391.59067 -23.239032,406.31378 Z"
       id="path17941"
       inkscape:original-d="M -0.70967102,356.23743 H 1143.4347 Z" />
    <path
       style="fill:none;fill-opacity:1;stroke:#ffffff;stroke-width:0.264583"
       d="m -22.794144,424.11893 c 52.77726,-11.84447 106.965045,-11.8145 161.360284,-7.43666 47.97321,3.86735 100.73276,11.6234 151.09321,18.4827 0,0 3e-5,0 3e-5,0 47.64709,6.50329 94.01648,12.25595 143.997,15.92857 46.29441,3.4053 92.23732,4.54055 139.97321,2.97313 46.92818,-1.57196 92.69273,-5.79312 139.36824,-12.15351 0,-1e-5 6e-5,-1e-5 6e-5,-1e-5 49.52239,-6.78598 95.06571,-15.12178 142.54138,-23.85599 50.84828,-9.35301 102.111,-18.586 149.61383,-22.77262 55.0814,-4.83838 108.6698,-3.2349 159.1575,13.38056 -50.4877,-16.61546 -104.0761,-18.21894 -159.1575,-13.38056 -47.50283,4.18662 -98.76555,13.41961 -149.61383,22.77262 -47.47567,8.73421 -93.01899,17.07001 -142.54138,23.85599 -46.67552,6.36039 -92.44009,10.58156 -139.3683,12.15352 -47.73589,1.56742 -93.6788,0.43217 -139.97321,-2.97313 -49.98051,-3.67262 -96.34989,-9.42528 -143.99697,-15.92856 0,0 -6e-5,-1e-5 -6e-5,-1e-5 -50.36045,-6.8593 -103.12,-14.61535 -151.09321,-18.4827 -54.395239,-4.37784 -108.583024,-4.40781 -161.360284,7.43666 z"
       id="path17943"
       inkscape:original-d="M -0.70966287,371.38396 H 1143.4347 Z" />
    <path
       style="fill:none;fill-opacity:1;stroke:#ffffff;stroke-width:0.264583"
       d="m -21.660815,444.41221 c 53.246584,-8.98652 108.064811,-7.172 162.769175,-1.82796 47.63551,4.65835 101.89642,12.83058 151.51336,19.46396 0,0 3e-5,0 3e-5,0 47.45951,6.35515 93.76474,11.72236 143.09676,14.86133 45.7582,2.91444 91.08421,3.54466 137.99572,1.52978 46.11265,-2.0035 91.15583,-6.55095 137.11282,-13.17399 0,-1e-5 6e-5,-1e-5 6e-5,-1e-5 48.69329,-7.04561 93.96709,-15.64711 141.07786,-24.7635 50.47582,-9.7666 101.99682,-19.74795 149.69173,-25.12401 55.3866,-6.2308 109.6535,-6.76218 160.7891,6.67669 -51.1356,-13.43887 -105.4025,-12.90749 -160.7891,-6.67669 -47.69491,5.37606 -99.21591,15.35741 -149.69173,25.12401 -47.11077,9.11639 -92.38457,17.71789 -141.07786,24.7635 0,0 -3e-5,0 -3e-5,0 -45.95699,6.62304 -91.00019,11.1705 -137.11285,13.174 -46.91151,2.01488 -92.23752,1.38466 -137.99572,-1.52978 -49.33203,-3.13897 -95.63727,-8.50619 -143.09679,-14.86133 -49.61694,-6.63338 -103.87785,-14.80561 -151.51336,-19.46396 -54.704364,-5.34404 -109.522591,-7.15856 -162.769175,1.82796 z"
       id="path17945"
       inkscape:original-d="M -0.70967417,386.53049 H 1143.4347 Z" />
    <path
       style="fill:none;fill-opacity:1;stroke:#ffffff;stroke-width:0.264583"
       d="m -19.579983,467.51162 c 53.817529,-6.18709 109.380726,-2.67297 164.410163,3.51606 49.91015,5.61621 100.50336,13.46141 151.88676,20.06964 0,0 6e-5,10e-6 6e-5,10e-6 47.23692,6.08073 93.32786,10.92886 141.88348,13.41594 45.08139,2.31091 89.60822,2.34753 135.49325,-0.17199 45.09712,-2.48892 89.21068,-7.37669 134.26047,-14.23824 0,0 6e-5,-1e-5 6e-5,-1e-5 47.69351,-7.28008 92.48325,-16.0849 139.14478,-25.51003 49.94831,-10.0886 101.73395,-20.74832 149.58583,-27.23141 55.68423,-7.53728 110.70643,-10.14846 162.60343,0.13883 -51.897,-10.28729 -106.9192,-7.67611 -162.60343,-0.13883 -47.85188,6.48309 -99.63752,17.14281 -149.58583,27.23141 -46.66153,9.42513 -91.45127,18.22995 -139.14478,25.51003 0,0 -6e-5,1e-5 -6e-5,1e-5 -45.04979,6.86155 -89.16335,11.74932 -134.26047,14.23824 -45.88503,2.51952 -90.41186,2.4829 -135.49325,0.17199 -48.55562,-2.48708 -94.64656,-7.33521 -141.88348,-13.41594 0,0 -6e-5,-10e-6 -6e-5,-10e-6 -51.3834,-6.60823 -101.97661,-14.45343 -151.88676,-20.06964 -55.029437,-6.18903 -110.592634,-9.70315 -164.410163,-3.51606 z"
       id="path17947"
       inkscape:original-d="M -0.70965647,401.67702 H 1143.4347 Z" />
    <path
       style="fill:none;fill-opacity:1;stroke:#ffffff;stroke-width:0.264583"
       d="m -16.26538,493.74569 c 54.480425,-3.48546 110.921371,1.60785 166.27303,8.48203 50.29137,6.24574 101.01055,14.04467 152.17452,20.20205 0,0 6e-5,1e-5 6e-5,1e-5 46.95634,5.65101 92.67071,9.82228 140.28614,11.51736 44.23543,1.57476 87.74717,0.91572 132.36566,-2.17208 43.8444,-3.03423 86.78129,-8.27351 130.69872,-15.3384 0,0 6e-5,-10e-6 6e-5,-10e-6 46.48263,-7.47756 90.54478,-16.40361 136.64369,-26.03882 49.21922,-10.28739 101.28822,-21.53067 149.23095,-29.00043 55.95565,-8.71822 111.80585,-13.31445 164.57345,-6.11276 -52.7676,-7.20169 -108.6178,-2.60546 -164.57345,6.11276 -47.94273,7.46976 -100.01173,18.71304 -149.23095,29.00043 -46.09891,9.63521 -90.16106,18.56126 -136.64369,26.03882 0,0 -6e-5,10e-6 -6e-5,10e-6 -43.91743,7.06489 -86.85432,12.30417 -130.69872,15.3384 -44.61849,3.0878 -88.13023,3.74684 -132.36566,2.17208 -47.61543,-1.69508 -93.3298,-5.86635 -140.28614,-11.51736 0,0 -6e-5,-1e-5 -6e-5,-1e-5 C 251.0182,516.27239 200.29902,508.47346 150.00765,502.22772 94.655991,495.35354 38.215045,490.26023 -16.26538,493.74569 Z"
       id="path17949"
       inkscape:original-d="M -0.70965647,416.82355 H 1143.4347 Z" />
    <path
       style="fill:none;fill-opacity:1;stroke:#ffffff;stroke-width:0.264583"
       d="M -26.803217,96.446711 C 32.710579,85.809013 87.702915,101.5054 141.7744,127.93346 c 47.95621,23.43915 98.04733,56.99046 147.85341,88.02944 0,0 3e-5,2e-5 3e-5,2e-5 46.39603,28.91384 93.09125,56.04693 143.62594,76.80237 46.95158,19.28379 94.96275,31.98998 144.75435,35.8199 48.90226,3.76153 97.52398,-1.25396 145.93542,-13.95425 0,-1e-5 6e-5,-2e-5 6e-5,-2e-5 50.90547,-13.35459 99.07329,-34.44567 146.40664,-58.60433 52.08077,-26.58172 101.54443,-56.10756 149.90705,-78.1307 55.4154,-25.23485 109.909,-40.63431 166.8361,-28.70179 -56.9271,-11.93252 -111.4207,3.46694 -166.8361,28.70179 -48.36262,22.02314 -97.82628,51.54898 -149.90705,78.1307 -47.33335,24.15866 -95.50117,45.24974 -146.40664,58.60433 0,0 -6e-5,10e-6 -6e-5,10e-6 -48.41144,12.7003 -97.03316,17.71579 -145.93542,13.95426 -49.7916,-3.82992 -97.80277,-16.53611 -144.75435,-35.8199 -50.53468,-20.75544 -97.2299,-47.88851 -143.62592,-76.80235 10e-6,-1e-5 -5e-5,-4e-5 -5e-5,-4e-5 C 239.82173,184.92392 189.73061,151.37261 141.7744,127.93346 87.702915,101.5054 32.710579,85.809013 -26.803217,96.446711 Z"
       id="path17951"
       inkscape:original-d="M -0.70964517,0.29395798 H 1143.4347 Z" />
    <path
       style="fill:none;fill-opacity:1;stroke:#ffffff;stroke-width:0.264583"
       d="m -34.764912,121.60201 c 59.631604,-15.94568 115.043492,-5.57756 169.688892,15.99398 48.59494,19.18635 99.08897,48.43296 149.73056,76.22754 0,0 6e-5,3e-5 6e-5,3e-5 47.11762,25.86473 94.3772,50.44039 145.75753,69.44389 47.71209,17.64398 96.40963,29.31716 147.04857,32.88267 49.74609,3.48852 99.05514,-1.10324 148.2717,-12.69055 0,-10e-6 7e-5,-2e-5 7e-5,-2e-5 51.76602,-12.20431 100.50403,-31.32259 148.52862,-52.90308 51.58227,-23.18277 104.04957,-49.97315 151.62511,-67.34324 55.9288,-20.4138 110.7698,-30.26167 167.7392,-12.61742 -56.9694,-17.64425 -111.8104,-7.79638 -167.7392,12.61742 -47.57554,17.37009 -100.04284,44.16047 -151.62511,67.34324 -48.02459,21.58049 -96.7626,40.69877 -148.52862,52.90308 0,0 -7e-5,1e-5 -7e-5,1e-5 -49.21656,11.58732 -98.52561,16.17908 -148.2717,12.69056 -50.63894,-3.56551 -99.33648,-15.23869 -147.04857,-32.88267 -51.38033,-19.0035 -98.63991,-43.57916 -145.75753,-69.44388 0,-1e-5 -6e-5,-4e-5 -6e-5,-4e-5 C 234.01295,186.02895 183.51892,156.78234 134.92398,137.59599 80.27858,116.02445 24.866692,105.65633 -34.764912,121.60201 Z"
       id="path17953"
       inkscape:original-d="M -0.70965647,15.440489 H 1143.4347 Z" />
    <path
       style="fill:none;fill-opacity:1;stroke:#ffffff;stroke-width:0.264583"
       d="m -40.267095,144.79877 c 59.595517,-20.64249 115.262213,-15.05092 170.310665,2.12778 49.04236,15.30991 99.8461,40.69282 151.10305,65.47764 0,0 3e-5,2e-5 3e-5,2e-5 47.6907,23.06838 95.29351,45.27611 147.32912,62.65317 48.27779,16.11808 97.4467,26.82712 148.70236,30.1394 50.36087,3.22927 100.12969,-0.97054 149.92516,-11.5226 0,-10e-6 7e-5,-10e-6 7e-5,-10e-6 52.40112,-11.13371 101.47551,-28.42056 150.00764,-47.61897 52.37259,-20.72248 104.60536,-43.72312 152.7744,-57.45031 56.2508,-16.01911 111.2611,-20.85088 168.1104,1.89888 -56.8493,-22.74976 -111.8596,-17.91799 -168.1104,-1.89888 -48.16904,13.72719 -100.40181,36.72783 -152.7744,57.45031 -48.53213,19.19841 -97.60652,36.48526 -150.00764,47.61897 0,0 -7e-5,0 -7e-5,0 -49.79547,10.55207 -99.56429,14.75188 -149.92516,11.52261 -51.25566,-3.31228 -100.42457,-14.02132 -148.70236,-30.1394 -52.0356,-17.37706 -99.6384,-39.58478 -147.32909,-62.65316 0,0 -6e-5,-3e-5 -6e-5,-3e-5 C 229.88967,187.61937 179.08593,162.23646 130.04357,146.92655 74.995118,129.74785 19.328422,124.15628 -40.267095,144.79877 Z"
       id="path17955"
       inkscape:original-d="M -0.70963875,30.587019 H 1143.4347 Z" />
    <path
       style="fill:none;fill-opacity:1;stroke:#ffffff;stroke-width:0.264583"
       d="m -43.692264,166.10795 c 59.425786,-24.74534 115.205128,-23.39415 170.509024,-10.1557 49.33356,11.81624 100.34978,33.73563 152.04266,55.7578 48.14552,20.52204 95.88682,40.54778 148.42553,56.42515 48.67924,14.70666 98.13808,24.52061 149.81706,27.59138 50.78356,2.9839 100.82106,-0.85674 151.00617,-10.45354 0,0 7e-5,-10e-6 7e-5,-10e-6 52.8522,-10.14576 102.05762,-25.74417 150.94808,-42.75895 52.8463,-18.39613 104.96203,-38.08245 153.44527,-48.4496 56.4108,-12.04712 111.44,-12.38849 168.0303,14.87231 -56.5903,-27.2608 -111.6195,-26.91943 -168.0303,-14.87231 -48.48324,10.36715 -100.59897,30.05347 -153.44527,48.4496 -48.89046,17.01478 -98.09588,32.61319 -150.94808,42.75895 -10e-6,0 -2e-5,0 -3e-5,0 -50.18513,9.59681 -100.22264,13.43745 -151.00621,10.45355 -51.67898,-3.07077 -101.13782,-12.88472 -149.81706,-27.59138 -52.53869,-15.87737 -100.27996,-35.90309 -148.42547,-56.42513 0,0 -6e-5,-2e-5 -6e-5,-2e-5 C 227.16654,189.68788 176.15032,167.76849 126.81676,155.95225 71.512864,142.7138 15.733522,141.36261 -43.692264,166.10795 Z"
       id="path17957"
       inkscape:original-d="M -0.70963874,45.73355 H 1143.4347 Z" />
    <path
       style="fill:none;fill-opacity:1;stroke:#ffffff;stroke-width:0.264583"
       d="m -45.395537,185.611 c 59.141886,-28.27225 114.913142,-30.64175 170.346887,-20.90314 49.49618,8.70329 100.63464,27.53249 152.61663,47.04298 0,0 3e-5,1e-5 3e-5,1e-5 48.51325,18.22224 96.19737,36.24678 149.1252,50.75192 48.94448,13.40944 98.5428,22.39698 150.48581,25.23824 51.04794,2.75226 101.19664,-0.76283 151.61601,-9.48608 0,-10e-6 7e-5,-2e-5 7e-5,-2e-5 53.15855,-9.24294 102.31332,-23.29647 151.44599,-38.32739 53.10825,-16.25074 105.10612,-33.0037 153.72171,-40.33508 56.4364,-8.49266 111.3598,-4.85833 167.5752,26.33195 -56.2154,-31.19028 -111.1388,-34.82461 -167.5752,-26.33195 -48.61559,7.33138 -100.61346,24.08434 -153.72171,40.33508 -49.13267,15.03092 -98.28744,29.08445 -151.44599,38.32739 0,0 -3e-5,1e-5 -3e-5,1e-5 -50.41939,8.72325 -100.5681,12.23836 -151.61605,9.48609 -51.94301,-2.84126 -101.54133,-11.8288 -150.48581,-25.23824 -52.92782,-14.50514 -100.61193,-32.52967 -149.12517,-50.7519 0,-1e-5 -6e-5,-3e-5 -6e-5,-3e-5 C 225.58599,192.24035 174.44753,173.41115 124.95135,164.70786 69.517605,154.96925 13.746349,157.33875 -45.395537,185.611 Z"
       id="path17959"
       inkscape:original-d="M -0.70962745,60.88008 H 1143.4347 Z" />
    <path
       style="fill:none;fill-opacity:1;stroke:#ffffff;stroke-width:0.264583"
       d="m -45.704803,203.3999 c 58.762557,-31.24212 114.425339,-36.83001 169.884123,-30.16407 49.55357,5.96437 100.73579,22.0562 152.88768,39.30509 0,0 3e-5,0 3e-5,0 48.82731,16.16499 96.25775,32.36208 149.50036,45.62276 49.09902,12.22529 98.71493,20.45421 150.79349,23.07789 51.18466,2.53399 101.31793,-0.68991 151.84688,-8.62248 0,-1e-5 7e-5,-1e-5 7e-5,-1e-5 53.35765,-8.42725 102.29841,-21.07892 151.58919,-34.32607 53.21657,-14.30432 105.06354,-28.4647 153.68138,-33.09692 56.3534,-5.34914 111.0707,1.7584 166.817,36.31076 -55.7463,-34.55236 -110.4636,-41.6599 -166.817,-36.31076 -48.61784,4.63222 -100.46481,18.7926 -153.68138,33.09692 -49.29078,13.24715 -98.23154,25.89882 -151.58919,34.32607 0,0 -7e-5,0 -7e-5,0 -50.52895,7.93258 -100.66222,11.15648 -151.84688,8.62249 -52.07856,-2.62368 -101.69447,-10.8526 -150.79349,-23.07789 -53.2426,-13.26068 -100.67303,-29.45776 -149.50033,-45.62274 0,-1e-5 -6e-5,-2e-5 -6e-5,-2e-5 C 224.91511,195.29203 173.73289,179.2002 124.17932,173.23583 68.720536,166.56989 13.057754,172.15778 -45.704803,203.3999 Z"
       id="path17961"
       inkscape:original-d="M -0.70963875,76.026611 H 1143.4347 Z" />
    <path
       style="fill:none;fill-opacity:1;stroke:#ffffff;stroke-width:0.264583"
       d="M -44.920566,219.57711 C 13.385181,185.90242 68.858326,177.5802 124.2568,181.58629 c 49.52624,3.58977 100.68744,17.2796 152.91405,32.51289 0,0 3e-5,1e-5 3e-5,1e-5 49.12544,14.34598 96.09061,28.87993 149.61674,41.02404 49.16572,11.15227 98.70356,18.68886 150.81679,21.10659 51.22112,2.32845 101.24052,-0.63913 151.78187,-7.86454 0,-10e-6 7e-5,-10e-6 7e-5,-10e-6 53.48557,-7.70016 102.06106,-19.09137 151.45719,-30.75411 53.21154,-12.56407 104.87073,-24.45037 153.39556,-26.72158 56.1859,-2.60844 110.6195,7.48319 165.8232,44.8455 -55.2037,-37.36231 -109.6373,-47.45394 -165.8232,-44.8455 -48.52483,2.27121 -100.18402,14.15751 -153.39556,26.72158 -49.39613,11.66274 -97.97162,23.05395 -151.45719,30.75411 0,0 -3e-5,0 -3e-5,0 -50.54137,7.22542 -100.56078,10.193 -151.78191,7.86455 -52.11323,-2.41773 -101.65107,-9.95432 -150.81679,-21.10659 -53.52612,-12.1441 -100.49128,-26.67805 -149.61671,-41.02403 0,-1e-5 -6e-5,-2e-5 -6e-5,-2e-5 C 224.94424,198.86589 173.78304,185.17606 124.2568,181.58629 68.858326,177.5802 13.385181,185.90242 -44.920566,219.57711 Z"
       id="path17963"
       inkscape:original-d="M -0.70962102,91.173142 H 1143.4346 Z" />
    <path
       style="fill:none;fill-opacity:1;stroke:#ffffff;stroke-width:0.264583"
       d="m -43.316135,234.25565 c 57.788664,-35.5906 113.009194,-46.18225 168.280275,-44.4386 49.43251,1.56768 100.5221,13.17466 152.74942,26.63208 0,0 3e-5,1e-5 3e-5,1e-5 49.45306,12.76098 95.70543,25.78362 149.53375,36.93932 49.16482,10.18757 98.55289,17.09612 150.62417,19.31891 51.18141,2.13475 101.01414,-0.61177 151.49497,-7.21362 0,-10e-6 7e-5,-10e-6 7e-5,-10e-6 53.57728,-7.06274 101.64151,-17.33203 151.12124,-27.60809 53.12442,-11.03193 104.56586,-20.94715 152.92911,-21.19172 55.956,-0.261 110.0497,12.34022 164.6573,51.97702 -54.6076,-39.6368 -108.7013,-52.23802 -164.6573,-51.97702 -48.36325,0.24457 -99.80469,10.15979 -152.92911,21.19172 -49.47973,10.27606 -97.54396,20.54535 -151.12124,27.60809 0,0 -3e-5,0 -3e-5,0 -50.48085,6.60186 -100.31358,9.34838 -151.49501,7.21363 -52.07128,-2.22279 -101.45935,-9.13134 -150.62417,-19.31891 -53.82831,-11.1557 -100.08067,-24.17833 -149.53372,-36.93931 0,0 -6e-5,-2e-5 -6e-5,-2e-5 -52.22732,-13.45742 -103.31691,-25.0644 -152.74942,-26.63208 -55.271081,-1.74365 -110.491611,8.848 -168.280275,44.4386 z"
       id="path17965"
       inkscape:original-d="M -0.70962102,106.31967 H 1143.4346 Z" />
    <path
       style="fill:none;fill-opacity:1;stroke:#ffffff;stroke-width:0.264583"
       d="M -41.137481,247.55904 C 16.090245,210.5477 71.01229,198.13148 126.10584,197.99357 c 49.28892,-0.11538 100.27032,9.71214 152.44298,21.62529 0,0 3e-5,0 3e-5,0 49.86801,11.40619 95.09378,23.0529 149.30445,33.34927 49.11379,9.32753 98.30224,15.66978 150.27583,17.70772 51.08637,1.95176 100.68274,-0.60917 151.0511,-6.67062 0,0 7e-5,-10e-6 7e-5,-10e-6 53.6668,-6.51561 101.0719,-15.79745 150.64429,-24.88197 52.98075,-9.70665 104.18546,-17.94094 152.34061,-16.48624 55.6841,1.70424 109.4016,16.35634 163.378,57.74992 -53.9764,-41.39358 -107.6939,-56.04568 -163.378,-57.74992 -48.15515,-1.4547 -99.35986,6.77959 -152.34061,16.48624 -49.57239,9.08452 -96.97749,18.36636 -150.64429,24.88197 0,0 -7e-5,10e-6 -7e-5,10e-6 -50.36836,6.06145 -99.96473,8.62238 -151.0511,6.67062 -51.97359,-2.03794 -101.16204,-8.38019 -150.27583,-17.70772 -54.21066,-10.29637 -99.43642,-21.94307 -149.30442,-33.34926 0,0 -6e-5,-10e-6 -6e-5,-10e-6 C 226.37616,207.70571 175.39476,197.87819 126.10584,197.99357 71.01229,198.13148 16.090245,210.5477 -41.137481,247.55904 Z"
       id="path17967"
       inkscape:original-d="M -0.70964517,121.4662 H 1143.4347 Z" />
    <path
       style="fill:none;fill-opacity:1;stroke:#ffffff;stroke-width:0.264583"
       d="M -38.603235,259.62128 C 18.035318,221.66203 72.629043,207.84521 127.51061,206.189 c 49.11045,-1.4743 99.96034,6.86121 152.03938,17.45201 0,0 6e-5,1e-5 6e-5,1e-5 50.44561,10.27864 94.22418,20.6638 148.97548,30.2317 49.02744,8.56769 97.98611,14.40225 149.82379,16.26425 50.95345,1.77809 100.28445,-0.63279 150.50604,-6.23601 0,-10e-6 7e-5,-10e-6 7e-5,-10e-6 53.78636,-6.05893 100.37721,-14.48262 150.08105,-22.5671 52.80185,-8.58472 103.76299,-15.41617 151.68252,-12.58031 55.3883,3.29981 108.7115,19.56105 162.0392,62.21254 -53.3277,-42.65149 -106.6509,-58.91273 -162.0392,-62.21254 -47.91953,-2.83586 -98.88067,3.99559 -151.68252,12.58031 -49.70384,8.08448 -96.29469,16.50817 -150.08105,22.5671 0,0 -7e-5,0 -7e-5,0 -50.22159,5.60323 -99.55259,8.01411 -150.50604,6.23602 -51.83768,-1.862 -100.79635,-7.69656 -149.82379,-16.26425 -54.7513,-9.5679 -98.52987,-19.95306 -148.97548,-30.23169 0,-1e-5 -6e-5,-2e-5 -6e-5,-2e-5 C 227.47095,213.05021 176.62106,204.7147 127.51061,206.189 72.629043,207.84521 18.035318,221.66203 -38.603235,259.62128 Z"
       id="path17969"
       inkscape:original-d="M -0.70965647,136.61273 H 1143.4347 Z" />
    <path
       style="fill:none;fill-opacity:1;stroke:#ffffff;stroke-width:0.264583"
       d="m -35.904751,270.5869 c 56.035985,-38.45755 110.286555,-53.27279 164.936071,-56.10271 48.91061,-2.52529 99.61807,4.58934 151.57878,14.06866 47.44313,8.67427 96.91959,19.21546 148.58726,27.5616 48.91789,7.90272 97.6341,13.28452 149.31183,14.97801 50.79684,1.61211 99.85161,-0.68418 149.90653,-5.90981 0,0 6e-5,0 6e-5,0 53.96302,-5.69209 99.57847,-13.38113 149.4779,-20.65224 52.60546,-7.6608 103.32815,-13.35538 151.00042,-9.44532 55.0856,4.53971 108.0133,21.98656 160.6913,65.41729 -52.678,-43.43073 -105.6057,-60.87758 -160.6913,-65.41729 -47.67227,-3.91006 -98.39496,1.78452 -151.00042,9.44532 -49.89943,7.27111 -95.51488,14.96015 -149.4779,20.65224 0,0 -3e-5,0 -3e-5,0 -50.05493,5.22562 -99.10971,7.52192 -149.90656,5.90981 -51.67773,-1.69349 -100.39394,-7.07529 -149.31183,-14.97801 -51.66765,-8.34614 -101.14409,-18.88732 -148.5872,-27.56159 0,0 -6e-5,-1e-5 -6e-5,-1e-5 C 228.64939,219.07353 177.94193,211.9589 129.03132,214.48419 74.381804,217.31411 20.131234,232.12935 -35.904751,270.5869 Z"
       id="path17971"
       inkscape:original-d="M -0.70963874,151.75926 H 1143.4347 Z" />
    <path
       style="fill:none;fill-opacity:1;stroke:#ffffff;stroke-width:0.264583"
       d="m -33.206153,280.61097 c 55.434096,-38.53034 109.340655,-53.96449 163.751173,-57.64336 48.7016,-3.28565 99.26697,2.86229 151.09681,11.42859 47.32012,7.84019 96.66901,17.57916 148.17362,25.31106 48.79463,7.32646 97.27079,12.30618 148.77548,13.83682 50.62749,1.45197 99.41061,-0.76497 149.29017,-5.69154 2e-5,-10e-6 4e-5,-10e-6 6e-5,-10e-6 54.21032,-5.41316 98.70125,-12.48585 148.87296,-19.12354 52.40616,-6.92794 102.90652,-11.73896 150.33408,-7.04889 54.7904,5.4394 107.3368,23.66774 159.3798,67.42041 -52.043,-43.75267 -104.5894,-61.98101 -159.3798,-67.42041 -47.42756,-4.69007 -97.92792,0.12095 -150.33408,7.04889 -50.17171,6.63769 -94.66264,13.71038 -148.87296,19.12354 0,0 -3e-5,0 -3e-5,0 -49.87957,4.92657 -98.6627,7.14352 -149.2902,5.69155 -51.50469,-1.53064 -99.98085,-6.51036 -148.77548,-13.83682 -51.50459,-7.73189 -100.85346,-17.47086 -148.17356,-25.31105 0,0 -6e-5,-1e-5 -6e-5,-1e-5 -51.82984,-8.5663 -102.39521,-14.71424 -151.09681,-11.42859 -54.410518,3.67887 -108.317077,19.11302 -163.751173,57.64336 z"
       id="path17973"
       inkscape:original-d="M -0.70963874,166.90579 H 1143.4347 Z" />
    <path
       style="fill:none;fill-opacity:1;stroke:#ffffff;stroke-width:0.264583"
       d="m -30.644207,289.85906 c 54.846142,-38.20258 108.420768,-53.89968 162.597177,-58.12359 48.49421,-3.77387 98.928,1.64388 150.62457,9.48201 0,0 4e-5,0 4e-5,0 47.19846,7.17546 96.42009,16.24355 147.76213,23.44933 48.66484,6.83195 96.91564,11.45542 148.24211,12.82686 50.45332,1.29555 98.98178,-0.87693 148.68547,-5.58036 0,0 6e-5,0 6e-5,0 54.51204,-5.21766 97.79186,-11.79013 148.2961,-17.96456 52.21553,-6.37773 102.51928,-10.54506 149.71655,-5.3549 54.5157,6.01584 106.7089,24.64217 158.146,68.28201 -51.4371,-43.63984 -103.6303,-62.26617 -158.146,-68.28201 -47.19727,-5.19016 -97.50102,-1.02283 -149.71655,5.3549 -50.50424,6.17443 -93.78406,12.7469 -148.2961,17.96456 0,0 -6e-5,0 -6e-5,0 -49.70369,4.70343 -98.23215,6.87591 -148.68547,5.58036 -51.32647,-1.37144 -99.57727,-5.99491 -148.24211,-12.82686 -51.34203,-7.20578 -100.56365,-16.27386 -147.76211,-23.44932 10e-6,0 -6e-5,-1e-5 -6e-5,-1e-5 -51.69657,-7.83813 -102.13036,-13.25588 -150.62457,-9.48201 -54.176409,4.22391 -107.751035,19.92101 -162.597177,58.12359 z"
       id="path17975"
       inkscape:original-d="M -0.70964517,182.05233 H 1143.4347 Z" />
    <path
       style="fill:none;fill-opacity:1;stroke:#ffffff;stroke-width:0.264583"
       d="m -28.328398,298.50723 c 54.284586,-37.50009 107.551272,-53.12862 161.508968,-57.61564 48.298,-4.00945 98.61966,0.89614 150.18868,8.17608 0,0 6e-5,1e-5 6e-5,1e-5 47.08561,6.66641 96.18728,15.18338 147.37408,21.9428 48.53348,6.4114 96.58267,10.71903 147.7308,11.93261 50.27939,1.14051 98.57919,-1.02191 148.11187,-5.57491 2e-5,0 4e-5,0 6e-5,0 51.12414,-4.75488 100.58309,-11.71015 147.76886,-17.15626 52.04229,-6.00035 102.18324,-9.74947 149.17462,-4.32346 54.2726,6.28742 106.1533,24.95011 157.0268,68.06608 -50.8735,-43.11597 -102.7542,-61.77866 -157.0268,-68.06608 -46.99138,-5.42601 -97.13233,-1.67689 -149.17462,4.32346 -47.18577,5.44611 -96.64472,12.40138 -147.76886,17.15626 0,0 -6e-5,0 -6e-5,0 -49.53268,4.553 -97.83248,6.71542 -148.11187,5.57491 -51.14813,-1.21358 -99.19732,-5.52121 -147.7308,-11.93261 -51.1868,-6.75942 -100.28847,-15.27639 -147.37408,-21.9428 0,0 -6e-5,-1e-5 -6e-5,-1e-5 -51.56902,-7.27994 -101.89068,-12.18553 -150.18868,-8.17608 -53.957696,4.48702 -107.224382,20.11555 -161.508968,57.61564 z"
       id="path17977"
       inkscape:original-d="M -0.70965647,197.19886 H 1143.4347 Z" />
    <path
       style="fill:none;fill-opacity:1;stroke:#ffffff;stroke-width:0.264583"
       d="m -26.340878,306.74206 c 53.761072,-36.44953 106.754709,-51.70329 160.518318,-56.19454 48.12114,-4.013 98.35792,0.57914 149.81119,7.45483 46.98726,6.29837 95.98124,14.37147 147.0244,20.75503 48.4036,6.0562 96.28026,10.08237 147.25243,11.13687 50.10817,0.9843 98.21038,-1.2019 147.57969,-5.6734 0,-10e-6 6e-5,-10e-6 6e-5,-10e-6 50.94716,-4.66994 100.25242,-11.42601 147.30455,-16.67697 51.89237,-5.78463 101.91062,-9.32567 148.72894,-3.91094 54.0699,6.27403 105.6899,24.63449 156.0544,66.8405 -50.3645,-42.20601 -101.9845,-60.56647 -156.0544,-66.8405 -46.81832,-5.41473 -96.83657,-1.87369 -148.72894,3.91094 -47.05213,5.25096 -96.35739,12.00703 -147.30455,16.67697 0,0 -3e-5,0 -3e-5,0 -49.36932,4.4715 -97.47154,6.65771 -147.57972,5.67341 -50.97217,-1.0545 -98.84883,-5.08067 -147.25243,-11.13687 -51.04314,-6.38355 -100.0371,-14.45665 -147.02434,-20.75502 0,0 -6e-5,-1e-5 -6e-5,-1e-5 -51.45327,-6.87569 -101.69005,-11.46783 -149.81119,-7.45483 -53.763609,4.49125 -106.757246,19.74501 -160.518318,56.19454 z"
       id="path17979"
       inkscape:original-d="M -0.70963874,212.34539 H 1143.4347 Z" />
    <path
       style="fill:none;fill-opacity:1;stroke:#ffffff;stroke-width:0.264583"
       d="m -24.736582,314.76068 c 53.286461,-35.07846 106.051867,-49.6775 159.653932,-53.93824 47.9705,-3.80613 98.15632,0.65108 149.50968,7.25925 46.90738,6.05562 95.80864,13.77861 146.72143,19.84667 48.27651,5.75694 96.01098,9.52936 146.80967,10.42074 49.93963,0.82413 97.87623,-1.419 147.09016,-5.87361 0,-10e-6 6e-5,-10e-6 6e-5,-10e-6 50.7883,-4.65267 99.96211,-11.31116 146.90817,-16.50247 51.7689,-5.71807 101.70913,-9.24465 148.39348,-4.06989 53.9151,5.99697 105.3357,23.74093 155.2571,64.67699 -49.9214,-40.93606 -101.342,-58.68002 -155.2571,-64.67699 -46.68435,-5.17476 -96.62458,-1.64818 -148.39348,4.06989 -46.94606,5.19131 -96.11987,11.8498 -146.90817,16.50247 0,0 -3e-5,0 -3e-5,0 -49.21394,4.45462 -97.15055,6.69775 -147.09019,5.87362 -50.79869,-0.89138 -98.53316,-4.6638 -146.80967,-10.42074 -50.91277,-6.06806 -99.81401,-13.79104 -146.72137,-19.84666 0,0 -6e-5,-1e-5 -6e-5,-1e-5 -51.35336,-6.60817 -101.53918,-11.06538 -149.50968,-7.25925 -53.602065,4.26074 -106.367471,18.85978 -159.653932,53.93824 z"
       id="path17981"
       inkscape:original-d="M -0.70963874,227.49192 H 1143.4347 Z" />
    <path
       style="fill:none;fill-opacity:1;stroke:#ffffff;stroke-width:0.264583"
       d="M -23.543112,322.77072 C 29.327666,289.35542 81.9186,275.66394 135.39827,271.84324 c 47.85157,-3.4115 98.02593,1.06821 149.29718,7.52719 0,0 3e-5,0 3e-5,0 46.84831,5.92147 95.67249,13.37365 146.46734,19.17556 48.15182,5.50336 95.77151,9.04253 146.39694,9.76366 49.77143,0.65698 97.57087,-1.67542 146.63542,-6.17287 0,0 7e-5,0 7e-5,0 50.64519,-4.69796 99.7085,-11.35121 146.57643,-16.6059 51.67231,-5.78685 101.5819,-9.47504 148.17612,-4.74918 53.8134,5.47906 105.1041,22.31777 154.6585,61.65121 -49.5544,-39.33344 -100.8451,-56.17215 -154.6585,-61.65121 -46.59422,-4.72586 -96.50381,-1.03767 -148.17612,4.74918 -46.86793,5.25469 -95.93124,11.90794 -146.57643,16.6059 -49.06458,4.49745 -96.86403,6.82985 -146.63549,6.17287 -50.62543,-0.72113 -98.24512,-4.2603 -146.39694,-9.76366 -50.79484,-5.80191 -99.61901,-13.25409 -146.46731,-19.17556 0,0 -6e-5,0 -6e-5,0 -51.27125,-6.45898 -101.44561,-10.93869 -149.29718,-7.52719 -53.47967,3.8207 -106.070604,17.51218 -158.941382,50.92748 z"
       id="path17983"
       inkscape:original-d="M -0.70966287,242.63845 H 1143.4347 Z" />
    <path
       style="fill:none;fill-opacity:1;stroke:#ffffff;stroke-width:0.264583"
       d="m -22.760727,330.99028 c 52.5232,-31.48926 105.00139,-44.04839 158.403077,-47.24581 47.76831,-2.85279 97.97552,1.78484 149.18223,8.19342 0,0 3e-5,0 3e-5,0 46.81065,5.87817 95.57194,13.1235 146.25794,18.69665 48.02739,5.28441 95.55273,8.60301 146.00045,9.14338 49.59877,0.4796 97.28171,-1.97345 146.19851,-6.56801 0,0 7e-5,-10e-6 7e-5,-10e-6 53.99604,-5.13114 96.02415,-11.12943 146.29782,-16.95781 51.60022,-5.97585 101.52747,-9.98301 148.0782,-5.89385 53.7684,4.74453 105.0056,20.41602 154.2779,57.84264 -49.2723,-37.42662 -100.5095,-53.09811 -154.2779,-57.84264 -46.55073,-4.08916 -96.47798,-0.082 -148.0782,5.89385 -50.27367,5.82838 -92.30178,11.82667 -146.29782,16.95781 0,0 -3e-5,10e-6 -3e-5,10e-6 -48.91682,4.59456 -96.59977,7.04761 -146.19855,6.56801 -50.44772,-0.54037 -97.97306,-3.85897 -146.00045,-9.14338 -50.68601,-5.57315 -99.44731,-12.81849 -146.25797,-18.69665 -51.20671,-6.40858 -101.41392,-11.04621 -149.18223,-8.19342 -53.401687,3.19742 -105.879877,15.75655 -158.403077,47.24581 z"
       id="path17985"
       inkscape:original-d="M -0.70967417,257.78498 H 1143.4347 Z" />
    <path
       style="fill:none;fill-opacity:1;stroke:#ffffff;stroke-width:0.264583"
       d="M -22.362417,339.64799 C 29.88965,310.31754 82.323881,299.08664 135.69591,296.66836 c 47.72311,-2.15475 98.01168,2.75342 149.16884,9.18962 0,0 6e-5,0 6e-5,0 50.06491,6.31997 92.19929,12.64245 146.08257,18.36206 47.89911,5.08817 95.33992,8.19051 145.59818,8.53597 49.4143,0.2885 96.98963,-2.31552 145.75339,-7.05548 0,0 7e-5,0 7e-5,0 53.38062,-5.24762 96.29157,-11.46896 146.05247,-17.52616 51.54755,-6.26868 101.53987,-10.73233 148.09491,-7.44524 53.7816,3.81909 105.0468,18.08943 154.1301,53.3347 -49.0833,-35.24527 -100.3485,-49.51561 -154.1301,-53.3347 -46.55504,-3.28709 -96.54736,1.17656 -148.09491,7.44524 -49.7609,6.0572 -92.67185,12.27854 -146.05247,17.52616 0,0 -7e-5,0 -7e-5,0 -48.76376,4.73996 -96.33909,7.34398 -145.75339,7.05548 -50.25826,-0.34546 -97.69907,-3.4478 -145.59818,-8.53597 -53.88328,-5.71961 -96.01766,-12.04209 -146.08257,-18.36205 0,-10e-6 -6e-5,-10e-6 -6e-5,-10e-6 -51.15716,-6.4362 -101.44573,-11.34437 -149.16884,-9.18962 -53.372029,2.41828 -105.80626,13.64918 -158.058327,42.97963 z"
       id="path17987"
       inkscape:original-d="M -0.70965647,272.93151 H 1143.4347 Z" />
    <path
       style="fill:none;fill-opacity:1;stroke:#ffffff;stroke-width:0.264583"
       d="m -22.293928,348.98305 c 52.064862,-26.96986 104.53012,-36.70652 157.923398,-38.21824 47.71641,-1.34318 98.13908,3.92447 149.2565,10.44438 0,0 6e-5,1e-5 6e-5,1e-5 49.29943,6.30882 92.91994,12.68529 145.92432,18.12103 47.76068,4.9019 95.11297,7.78338 145.1599,7.91582 49.20783,0.0799 96.66918,-2.70414 145.26488,-7.63124 0,0 7e-5,-10e-6 7e-5,-10e-6 52.7717,-5.40849 96.53258,-11.91072 145.81229,-18.27628 51.50636,-6.64761 101.60858,-11.68431 148.21491,-9.34088 53.8527,2.72987 105.2317,15.3944 154.2258,48.21463 -48.9941,-32.82023 -100.3731,-45.48476 -154.2258,-48.21463 -46.60633,-2.34343 -96.70855,2.69327 -148.21491,9.34088 -49.27971,6.36556 -93.04059,12.86779 -145.81229,18.27628 0,0 -7e-5,10e-6 -7e-5,10e-6 -48.5957,4.9271 -96.05705,7.71115 -145.26488,7.63124 -50.04693,-0.13244 -97.39922,-3.01392 -145.1599,-7.91582 -53.00438,-5.43574 -96.62489,-11.81221 -145.92432,-18.12103 0,0 -6e-5,-1e-5 -6e-5,-1e-5 -51.11742,-6.51991 -101.54009,-11.78756 -149.2565,-10.44438 -53.393278,1.51172 -105.858536,11.24838 -157.923398,38.21824 z"
       id="path17989"
       inkscape:original-d="M -0.70965647,288.07804 H 1143.4347 Z" />
    <path
       style="fill:none;fill-opacity:1;stroke:#ffffff;stroke-width:0.264583"
       d="M -22.473675,359.24512 C 29.49448,334.80583 82.071124,326.69867 135.53772,326.19138 c 47.74626,-0.44499 98.36098,5.24674 149.44017,11.88322 48.7671,6.35639 93.43089,12.74462 145.7599,17.91997 47.60336,4.71201 94.84667,7.35856 144.64714,7.25564 48.96621,-0.15016 96.28878,-3.14188 144.68876,-8.29082 0,0 6e-5,0 6e-5,0 52.19872,-5.60972 96.6756,-12.43101 145.5409,-19.17095 51.46585,-7.09363 101.71864,-12.79783 148.42045,-11.51456 53.9796,1.50545 105.5606,12.39009 154.5712,42.57358 -49.0106,-30.18349 -100.5916,-41.06813 -154.5712,-42.57358 -46.70181,-1.28327 -96.9546,4.42093 -148.42045,11.51456 -48.8653,6.73994 -93.34218,13.56123 -145.5409,19.17095 -48.4,5.14893 -95.72258,8.14066 -144.68882,8.29082 -49.80047,0.10292 -97.04378,-2.54363 -144.64714,-7.25564 -52.32898,-5.17535 -96.99277,-11.56358 -145.75984,-17.91996 0,0 -6e-5,-1e-5 -6e-5,-1e-5 -51.07919,-6.63648 -101.69391,-12.32821 -149.44017,-11.88322 -53.466596,0.50729 -106.04324,8.61445 -158.011395,33.05374 z"
       id="path17991"
       inkscape:original-d="M -0.70967744,303.22457 H 1143.4347 Z" />
    <path
       style="fill:none;fill-opacity:1;stroke:#ffffff;stroke-width:0.264583"
       d="m -22.792739,370.69438 c 51.967546,-21.7714 104.740592,-28.14548 158.332259,-27.58103 47.80737,0.51162 98.68021,6.66718 149.71033,13.42852 0,0 6e-5,10e-6 6e-5,10e-6 48.39388,6.43164 93.78371,12.78865 145.55943,17.70237 47.41583,4.50404 94.5108,6.89163 144.01321,6.52646 48.67308,-0.406 95.81093,-3.63142 143.97167,-9.02928 0,-10e-6 6e-5,-10e-6 6e-5,-10e-6 51.65396,-5.84404 96.67717,-13.00712 145.19361,-20.17029 51.41231,-7.58638 101.8507,-14.0294 148.68781,-13.89631 54.1578,0.17586 106.0305,9.13833 155.1677,36.50656 -49.1372,-27.36823 -101.0099,-36.3307 -155.1677,-36.50656 -46.83711,-0.13309 -97.2755,6.30993 -148.68781,13.89631 -48.51644,7.16317 -93.53965,14.32625 -145.19361,20.17029 0,0 -3e-5,0 -3e-5,0 -48.16075,5.39786 -95.2986,8.62329 -143.9717,9.02929 -49.50241,0.36517 -96.59738,-2.02242 -144.01321,-6.52646 -51.77572,-4.91372 -97.16555,-11.27073 -145.55943,-17.70237 0,0 -6e-5,-10e-6 -6e-5,-10e-6 -51.03012,-6.76134 -101.90296,-12.9169 -149.71033,-13.42852 -53.591667,-0.56445 -106.364713,5.80963 -158.332259,27.58103 z"
       id="path17993"
       inkscape:original-d="M -0.70968874,318.3711 H 1143.4347 Z" />
    <path
       style="fill:none;fill-opacity:1;stroke:#ffffff;stroke-width:0.264583"
       d="m -23.114919,383.60151 c 52.067612,-18.99972 105.126175,-23.56965 158.892859,-21.89789 47.88895,1.49702 99.10124,8.13136 150.05291,14.99961 10e-6,0 2e-5,0 3e-5,0 48.12387,6.50562 94.00665,12.78063 145.28705,17.40897 47.18404,4.2627 94.0703,6.35677 143.2032,5.69761 48.30884,-0.69211 95.19232,-4.17551 143.05124,-9.84127 51.1106,-6.10241 96.50394,-13.61617 144.71749,-21.23186 51.3289,-8.10418 101.98121,-15.33311 148.98644,-16.41242 54.3816,-1.2274 106.6355,5.70371 156.013,30.11251 -49.3775,-24.4088 -101.6314,-31.33991 -156.013,-30.11251 -47.00523,1.07931 -97.65754,8.30824 -148.98644,16.41242 -48.21355,7.61569 -93.60689,15.12945 -144.71749,21.23186 0,0 -7e-5,0 -7e-5,0 -47.85889,5.66576 -94.74235,9.14916 -143.05117,9.84127 -49.1329,0.65916 -96.01916,-1.43491 -143.2032,-5.69761 -51.28038,-4.62834 -97.16316,-10.90335 -145.28702,-17.40896 0,0 -6e-5,-10e-6 -6e-5,-10e-6 -50.95167,-6.86825 -102.16396,-13.50259 -150.05291,-14.99961 -53.766684,-1.67176 -106.825247,2.89817 -158.892859,21.89789 z"
       id="path17995"
       inkscape:original-d="M -0.70967102,333.51763 H 1143.4347 Z" />
    <path
       style="fill:none;fill-opacity:1;stroke:#ffffff;stroke-width:0.264583"
       d="m -23.27678,398.24774 c 52.271791,-16.15866 105.708808,-18.88682 159.69698,-16.10493 47.96983,2.47942 99.63515,9.58394 150.44935,16.51269 0,0 3e-5,10e-6 3e-5,10e-6 47.91518,6.5505 94.10819,12.6796 144.90023,16.97753 46.89125,3.97184 93.48524,5.72679 142.15396,4.73677 47.85048,-1.0133 94.38371,-4.77697 141.85581,-10.72094 50.53377,-6.37474 96.12159,-14.23417 144.05131,-22.31061 51.19548,-8.62392 102.0826,-16.66074 149.27981,-18.98536 54.6426,-2.67145 107.3661,2.15346 157.1,23.49417 -49.7339,-21.34071 -102.4574,-26.16562 -157.1,-23.49417 -47.19721,2.32462 -98.08433,10.36144 -149.27981,18.98536 -47.92972,8.07644 -93.51754,15.93587 -144.05131,22.31061 0,0 -7e-5,0 -7e-5,0 -47.47207,5.94398 -94.00529,9.70764 -141.85574,10.72094 -48.66872,0.99002 -95.26271,-0.76493 -142.15396,-4.73677 -50.79203,-4.29793 -96.98503,-10.42703 -144.9002,-16.97753 0,0 -6e-5,-10e-6 -6e-5,-10e-6 -50.8142,-6.92875 -102.47952,-14.03327 -150.44935,-16.51269 -53.988172,-2.78189 -107.425189,-0.0537 -159.69698,16.10493 z"
       id="path17997"
       inkscape:original-d="M -0.70967102,348.66416 H 1143.4347 Z" />
    <path
       style="fill:none;fill-opacity:1;stroke:#ffffff;stroke-width:0.264583"
       d="M -23.087519,414.9248 C 29.494598,401.64127 83.40694,400.75828 137.65772,404.61919 c 48.00441,3.42328 100.31361,10.97046 150.87654,17.88091 0,0 3e-5,0 3e-5,0 47.7351,6.53888 94.08223,12.44126 144.3502,16.34306 46.51801,3.61447 92.71085,4.9731 140.79414,3.60991 47.27176,-1.37461 93.33014,-5.43871 140.30475,-11.66203 0,0 7e-5,0 7e-5,0 49.88551,-6.65038 95.48983,-14.83564 143.12557,-23.35888 50.98821,-9.12105 102.12367,-17.96181 149.52468,-21.53392 54.9309,-4.12189 108.2101,-1.44243 158.4173,16.75824 -50.2072,-18.20067 -103.4864,-20.88013 -158.4173,-16.75824 -47.40101,3.57211 -98.53647,12.41287 -149.52468,21.53392 -47.63574,8.52324 -93.24006,16.7085 -143.12557,23.35888 -46.97464,6.22331 -93.03304,10.28742 -140.30482,11.66203 -48.08329,1.36319 -94.27613,0.005 -140.79414,-3.60991 -50.26796,-3.9018 -96.61508,-9.80418 -144.35017,-16.34305 0,0 -6e-5,-1e-5 -6e-5,-1e-5 C 237.97133,415.58965 185.66213,408.04247 137.65772,404.61919 83.40694,400.75828 29.494598,401.64127 -23.087519,414.9248 Z"
       id="path17999"
       inkscape:original-d="M -0.70966287,363.81069 H 1143.4347 Z" />
    <path
       style="fill:none;fill-opacity:1;stroke:#ffffff;stroke-width:0.264583"
       d="m -22.329091,433.93492 c 52.998872,-10.41057 107.488288,-9.47995 162.035201,-4.6062 47.87228,4.28306 101.23927,12.24345 151.30687,19.01428 0,0 3e-5,10e-6 3e-5,10e-6 47.55622,6.44322 93.91179,12.01841 143.58182,15.43764 46.04219,3.17274 91.69743,4.06572 139.04414,2.28133 46.54321,-1.78136 91.97082,-6.16375 138.30847,-12.65781 0,0 7e-5,-1e-5 7e-5,-1e-5 49.12665,-6.91821 94.56057,-15.39348 141.86248,-24.32642 50.67895,-9.56939 102.07023,-19.18368 149.67191,-23.97306 55.234,-5.54292 109.1517,-5.01131 159.949,10.01524 -50.7973,-15.02655 -104.715,-15.55816 -159.949,-10.01524 -47.60168,4.78938 -98.99296,14.40367 -149.67191,23.97306 -47.30191,8.93294 -92.73583,17.40821 -141.86248,24.32642 0,0 -3e-5,0 -3e-5,0 -46.33767,6.49407 -91.76528,10.87646 -138.30851,12.65782 -47.34671,1.78439 -93.00195,0.89141 -139.04414,-2.28133 -49.67004,-3.41923 -96.02562,-8.99443 -143.58185,-15.43765 -50.0676,-6.77083 -103.43459,-14.73122 -151.30687,-19.01428 -54.546913,-4.87375 -109.036329,-5.80437 -162.035201,4.6062 z"
       id="path18001"
       inkscape:original-d="M -0.70967417,378.95722 H 1143.4347 Z" />
    <path
       style="fill:none;fill-opacity:1;stroke:#ffffff;stroke-width:0.264583"
       d="m -20.756081,455.59086 c 53.519779,-7.57708 108.695322,-4.89991 163.561221,0.88415 47.0967,4.96889 102.86734,13.39685 151.70822,19.81978 0,0 6e-5,0 6e-5,0 47.35403,6.23552 93.57149,11.36137 142.53353,14.19052 45.43909,2.628 90.39034,2.97332 136.81617,0.71366 45.63215,-2.2391 90.23889,-6.95514 135.76807,-13.70112 0,0 7e-5,-1e-5 7e-5,-1e-5 48.21727,-7.16673 93.27745,-15.87887 140.17597,-25.16038 50.23408,-9.94095 101.88621,-20.27184 149.66567,-26.21402 55.5375,-6.89722 110.1727,-8.47784 161.675,3.37959 -51.5023,-11.85743 -106.1375,-10.27681 -161.675,-3.37959 -47.77946,5.94218 -99.43159,16.27307 -149.66567,26.21402 -46.89852,9.28151 -91.9587,17.99365 -140.17597,25.16038 0,0 -7e-5,1e-5 -7e-5,1e-5 -45.52918,6.74598 -90.13592,11.46202 -135.76807,13.70112 -46.42583,2.25966 -91.37708,1.91434 -136.81617,-0.71366 -48.96204,-2.82915 -95.1795,-7.955 -142.53353,-14.19051 0,-1e-5 -6e-5,-1e-5 -6e-5,-1e-5 C 245.67248,469.87186 189.90184,461.4439 142.80514,456.47501 87.939241,450.69095 32.763698,448.01378 -20.756081,455.59086 Z"
       id="path18003"
       inkscape:original-d="M -0.70965647,394.10375 H 1143.4347 Z" />
    <path
       style="fill:none;fill-opacity:1;stroke:#ffffff;stroke-width:0.264583"
       d="m -18.095867,480.21587 c 54.138432,-4.82153 110.122183,-0.50058 165.314627,6.0535 50.0983,5.95073 100.75885,13.79505 152.04395,20.20123 0,0 6e-5,1e-5 6e-5,1e-5 47.10532,5.88713 93.02923,10.41811 141.13751,12.5281 44.68143,1.96069 88.72992,1.6631 134.01418,-1.13219 44.50285,-2.75369 88.06151,-7.81601 132.57565,-14.78433 0,0 6e-5,-1e-5 6e-5,-1e-5 47.11697,-7.38419 91.57556,-16.2612 137.97173,-25.80529 49.61238,-10.20551 101.53583,-21.1703 149.44384,-28.16427 55.82446,-8.14597 111.25176,-11.76404 163.57076,-3.03041 -52.319,-8.73363 -107.7463,-5.11556 -163.57076,3.03041 -47.90801,6.99397 -99.83146,17.95876 -149.44384,28.16427 -46.39617,9.54409 -90.85476,18.4211 -137.97173,25.80529 0,0 -6e-5,1e-5 -6e-5,1e-5 -44.51414,6.96832 -88.0728,12.03064 -132.57565,14.78433 -45.28426,2.79529 -89.33275,3.09288 -134.01418,1.13219 -48.10828,-2.10999 -94.03219,-6.64097 -141.13751,-12.5281 0,0 -6e-5,-1e-5 -6e-5,-1e-5 -51.2851,-6.40618 -101.94565,-14.2505 -152.04395,-20.20123 -55.192444,-6.55408 -111.176195,-10.87503 -165.314627,-6.0535 z"
       id="path18005"
       inkscape:original-d="M -0.70965647,409.25028 H 1143.4347 Z" />
  </g>
</svg>
